<?xml version="1.0" encoding="UTF-8"?>
<svg xmlns="http://www.w3.org/2000/svg" viewBox="0 0 720 720">
  <g transform="translate(0, 560) scale(1, -1)">
    <path d="M720 236V200H684V236ZM648 236V200H612V236ZM576 236V200H540V236ZM504 236V200H468V236ZM432 236V200H396V236ZM360 236V200H324V236ZM288 236V200H252V236ZM216 236V200H180V236ZM144 236V200H108V236ZM72 236V200H36V236ZM684 272V236H648V272ZM612 272V236H576V272ZM540 272V236H504V272ZM468 272V236H432V272ZM396 272V236H360V272ZM324 272V236H288V272ZM252 272V236H216V272ZM180 272V236H144V272ZM108 272V236H72V272ZM36 272V236H0V272ZM720 308V272H684V308ZM648 308V272H612V308ZM576 308V272H540V308ZM504 308V272H468V308ZM432 308V272H396V308ZM360 308V272H324V308ZM288 308V272H252V308ZM216 308V272H180V308ZM144 308V272H108V308ZM72 308V272H36V308ZM684 344V308H648V344ZM612 344V308H576V344ZM540 344V308H504V344ZM468 344V308H432V344ZM396 344V308H360V344ZM324 344V308H288V344ZM252 344V308H216V344ZM180 344V308H144V344ZM108 344V308H72V344ZM36 344V308H0V344ZM720 380V344H684V380ZM648 380V344H612V380ZM576 380V344H540V380ZM504 380V344H468V380ZM432 380V344H396V380ZM360 380V344H324V380ZM288 380V344H252V380ZM216 380V344H180V380ZM144 380V344H108V380ZM72 380V344H36V380ZM684 416V380H648V416ZM612 416V380H576V416ZM540 416V380H504V416ZM468 416V380H432V416ZM396 416V380H360V416ZM324 416V380H288V416ZM252 416V380H216V416ZM180 416V380H144V416ZM108 416V380H72V416ZM36 416V380H0V416ZM720 452V416H684V452ZM648 452V416H612V452ZM576 452V416H540V452ZM504 452V416H468V452ZM432 452V416H396V452ZM360 452V416H324V452ZM288 452V416H252V452ZM216 452V416H180V452ZM144 452V416H108V452ZM72 452V416H36V452ZM684 488V452H648V488ZM612 488V452H576V488ZM540 488V452H504V488ZM468 488V452H432V488ZM396 488V452H360V488ZM324 488V452H288V488ZM252 488V452H216V488ZM180 488V452H144V488ZM108 488V452H72V488ZM36 488V452H0V488ZM720 524V488H684V524ZM648 524V488H612V524ZM576 524V488H540V524ZM504 524V488H468V524ZM432 524V488H396V524ZM360 524V488H324V524ZM288 524V488H252V524ZM216 524V488H180V524ZM144 524V488H108V524ZM72 524V488H36V524ZM684 560V524H648V560ZM612 560V524H576V560ZM540 560V524H504V560ZM468 560V524H432V560ZM396 560V524H360V560ZM324 560V524H288V560ZM252 560V524H216V560ZM180 560V524H144V560ZM108 560V524H72V560ZM36 560V524H0V560Z" fill="currentColor"/>
  </g>
</svg>