<?xml version="1.0" encoding="UTF-8"?>
<svg xmlns="http://www.w3.org/2000/svg" viewBox="0 0 720 720">
  <g transform="translate(0, 560) scale(1, -1)">
    <path d="M0 560H36V524ZM72 560H108V524H72ZM144 560H180V524H144ZM216 560H252V524H216ZM288 560H324V524H288ZM360 560H396V524H360ZM432 560H468V524H432ZM504 560H540V524H504ZM576 560H612V524H576ZM648 560H684V524H648ZM36 524H72V488ZM108 524H144V488H108ZM180 524H216V488H180ZM252 524H288V488H252ZM324 524H360V488H324ZM396 524H432V488H396ZM468 524H504V488H468ZM540 524H576V488H540ZM612 524H648V488H612ZM684 524H720V488H684ZM72 488H108V452ZM144 488H180V452H144ZM216 488H252V452H216ZM288 488H324V452H288ZM360 488H396V452H360ZM432 488H468V452H432ZM504 488H540V452H504ZM576 488H612V452H576ZM648 488H684V452H648ZM108 452H144V416ZM180 452H216V416H180ZM252 452H288V416H252ZM324 452H360V416H324ZM396 452H432V416H396ZM468 452H504V416H468ZM540 452H576V416H540ZM612 452H648V416H612ZM684 452H720V416H684ZM144 416H180V380ZM216 416H252V380H216ZM288 416H324V380H288ZM360 416H396V380H360ZM432 416H468V380H432ZM504 416H540V380H504ZM576 416H612V380H576ZM648 416H684V380H648ZM180 380H216V344ZM252 380H288V344H252ZM324 380H360V344H324ZM396 380H432V344H396ZM468 380H504V344H468ZM540 380H576V344H540ZM612 380H648V344H612ZM684 380H720V344H684ZM216 344H252V308ZM288 344H324V308H288ZM360 344H396V308H360ZM432 344H468V308H432ZM504 344H540V308H504ZM576 344H612V308H576ZM648 344H684V308H648ZM252 308H288V272ZM324 308H360V272H324ZM396 308H432V272H396ZM468 308H504V272H468ZM540 308H576V272H540ZM612 308H648V272H612ZM684 308H720V272H684ZM288 272H324V236ZM360 272H396V236H360ZM432 272H468V236H432ZM504 272H540V236H504ZM576 272H612V236H576ZM648 272H684V236H648ZM324 236H360V200ZM396 236H432V200H396ZM468 236H504V200H468ZM540 236H576V200H540ZM612 236H648V200H612ZM684 236H720V200H684ZM360 200H396V164ZM432 200H468V164H432ZM504 200H540V164H504ZM576 200H612V164H576ZM648 200H684V164H648ZM396 164H432V128ZM468 164H504V128H468ZM540 164H576V128H540ZM612 164H648V128H612ZM684 164H720V128H684ZM432 128H468V92ZM504 128H540V92H504ZM576 128H612V92H576ZM648 128H684V92H648ZM468 92H504V56ZM540 92H576V56H540ZM612 92H648V56H612ZM684 92H720V56H684ZM504 56H540V20ZM576 56H612V20H576ZM648 56H684V20H648ZM540 20H576V-16ZM612 20H648V-16H612ZM684 20H720V-16H684ZM576 -16H612V-52ZM648 -16H684V-52H648ZM612 -52H648V-88ZM684 -52H720V-88H684ZM648 -88H684V-124ZM684 -124H720V-160Z" fill="currentColor"/>
  </g>
</svg>