<?xml version="1.0" encoding="UTF-8"?>
<svg xmlns="http://www.w3.org/2000/svg" viewBox="0 0 720 720">
  <g transform="translate(0, 560) scale(1, -1)">
    <path d="M0 560 36 524H0ZM36 524 72 488H36ZM0 488H36V452H0ZM72 488 108 452H72ZM36 452H72V416H36ZM108 452 144 416H108ZM0 416H36V380H0ZM72 416H108V380H72ZM144 416 180 380H144ZM36 380H72V344H36ZM108 380H144V344H108ZM180 380 216 344H180ZM0 344H36V308H0ZM72 344H108V308H72ZM144 344H180V308H144ZM216 344 252 308H216ZM36 308H72V272H36ZM108 308H144V272H108ZM180 308H216V272H180ZM252 308 288 272H252ZM0 272H36V236H0ZM72 272H108V236H72ZM144 272H180V236H144ZM216 272H252V236H216ZM288 272 324 236H288ZM36 236H72V200H36ZM108 236H144V200H108ZM180 236H216V200H180ZM252 236H288V200H252ZM324 236 360 200H324ZM0 200H36V164H0ZM72 200H108V164H72ZM144 200H180V164H144ZM216 200H252V164H216ZM288 200H324V164H288ZM360 200 396 164H360ZM36 164H72V128H36ZM108 164H144V128H108ZM180 164H216V128H180ZM252 164H288V128H252ZM324 164H360V128H324ZM396 164 432 128H396ZM0 128H36V92H0ZM72 128H108V92H72ZM144 128H180V92H144ZM216 128H252V92H216ZM288 128H324V92H288ZM360 128H396V92H360ZM432 128 468 92H432ZM36 92H72V56H36ZM108 92H144V56H108ZM180 92H216V56H180ZM252 92H288V56H252ZM324 92H360V56H324ZM396 92H432V56H396ZM468 92 504 56H468ZM0 56H36V20H0ZM72 56H108V20H72ZM144 56H180V20H144ZM216 56H252V20H216ZM288 56H324V20H288ZM360 56H396V20H360ZM432 56H468V20H432ZM504 56 540 20H504ZM36 20H72V-16H36ZM108 20H144V-16H108ZM180 20H216V-16H180ZM252 20H288V-16H252ZM324 20H360V-16H324ZM396 20H432V-16H396ZM468 20H504V-16H468ZM540 20 576 -16H540ZM0 -16H36V-52H0ZM72 -16H108V-52H72ZM144 -16H180V-52H144ZM216 -16H252V-52H216ZM288 -16H324V-52H288ZM360 -16H396V-52H360ZM432 -16H468V-52H432ZM504 -16H540V-52H504ZM576 -16 612 -52H576ZM36 -52H72V-88H36ZM108 -52H144V-88H108ZM180 -52H216V-88H180ZM252 -52H288V-88H252ZM324 -52H360V-88H324ZM396 -52H432V-88H396ZM468 -52H504V-88H468ZM540 -52H576V-88H540ZM612 -52 648 -88H612ZM0 -88H36V-124H0ZM72 -88H108V-124H72ZM144 -88H180V-124H144ZM216 -88H252V-124H216ZM288 -88H324V-124H288ZM360 -88H396V-124H360ZM432 -88H468V-124H432ZM504 -88H540V-124H504ZM576 -88H612V-124H576ZM648 -88 684 -124H648ZM36 -124H72V-160H36ZM108 -124H144V-160H108ZM180 -124H216V-160H180ZM252 -124H288V-160H252ZM324 -124H360V-160H324ZM396 -124H432V-160H396ZM468 -124H504V-160H468ZM540 -124H576V-160H540ZM612 -124H648V-160H612ZM684 -124 720 -160H684Z" fill="currentColor"/>
  </g>
</svg>