<?xml version="1.0" encoding="UTF-8"?>
<svg xmlns="http://www.w3.org/2000/svg" viewBox="0 0 720 720">
  <g transform="translate(0, 560) scale(1, -1)">
    <path d="M0 560H36V524H0ZM72 560H108V524H72ZM144 560H180V524H144ZM216 560H252V524H216ZM288 560H324V524H288ZM360 560H396V524H360ZM432 560H468V524H432ZM504 560H540V524H504ZM576 560H612V524H576ZM648 560H684V524H648ZM36 524H72V488H36ZM108 524H144V488H108ZM180 524H216V488H180ZM252 524H288V488H252ZM324 524H360V488H324ZM396 524H432V488H396ZM468 524H504V488H468ZM540 524H576V488H540ZM612 524H648V488H612ZM0 488H36V452H0ZM72 488H108V452H72ZM144 488H180V452H144ZM216 488H252V452H216ZM288 488H324V452H288ZM360 488H396V452H360ZM432 488H468V452H432ZM504 488H540V452H504ZM576 488H612V452H576ZM36 452H72V416H36ZM108 452H144V416H108ZM180 452H216V416H180ZM252 452H288V416H252ZM324 452H360V416H324ZM396 452H432V416H396ZM468 452H504V416H468ZM540 452H576V416H540ZM0 416H36V380H0ZM72 416H108V380H72ZM144 416H180V380H144ZM216 416H252V380H216ZM288 416H324V380H288ZM360 416H396V380H360ZM432 416H468V380H432ZM504 416H540V380H504ZM36 380H72V344H36ZM108 380H144V344H108ZM180 380H216V344H180ZM252 380H288V344H252ZM324 380H360V344H324ZM396 380H432V344H396ZM468 380H504V344H468ZM0 344H36V308H0ZM72 344H108V308H72ZM144 344H180V308H144ZM216 344H252V308H216ZM288 344H324V308H288ZM360 344H396V308H360ZM432 344H468V308H432ZM36 308H72V272H36ZM108 308H144V272H108ZM180 308H216V272H180ZM252 308H288V272H252ZM324 308H360V272H324ZM396 308H432V272H396ZM0 272H36V236H0ZM72 272H108V236H72ZM144 272H180V236H144ZM216 272H252V236H216ZM288 272H324V236H288ZM360 272H396V236H360ZM36 236H72V200H36ZM108 236H144V200H108ZM180 236H216V200H180ZM252 236H288V200H252ZM324 236H360V200H324ZM0 200H36V164H0ZM72 200H108V164H72ZM144 200H180V164H144ZM216 200H252V164H216ZM288 200H324V164H288ZM36 164H72V128H36ZM108 164H144V128H108ZM180 164H216V128H180ZM252 164H288V128H252ZM0 128H36V92H0ZM72 128H108V92H72ZM144 128H180V92H144ZM216 128H252V92H216ZM36 92H72V56H36ZM108 92H144V56H108ZM180 92H216V56H180ZM0 56H36V20H0ZM72 56H108V20H72ZM144 56H180V20H144ZM36 20H72V-16H36ZM108 20H144V-16H108ZM0 -16H36V-52H0ZM72 -16H108V-52H72ZM36 -52H72V-88H36ZM0 -88H36V-124H0Z" fill="currentColor"/>
  </g>
</svg>