<?xml version="1.0" encoding="UTF-8"?>
<svg xmlns="http://www.w3.org/2000/svg" viewBox="0 0 720 720">
  <g transform="translate(0, 560) scale(1, -1)">
    <path d="M557 97 400 175V129L516 -102L444 -138L349 52L188 -108L132 -52L320 137V215L127 312L163 383L320 305V327Q284 340 262.0 370.5Q240 401 240 440Q240 490 275.0 525.0Q310 560 360.0 560.0Q410 560 445.0 525.0Q480 490 480 440Q480 401 458.0 370.5Q436 340 400 327V265L593 168ZM388.0 468.0Q376 480 360.0 480.0Q344 480 332.0 468.0Q320 456 320.0 440.0Q320 424 332.0 412.0Q344 400 360.0 400.0Q376 400 388.0 412.0Q400 424 400.0 440.0Q400 456 388.0 468.0Z" fill="currentColor"/>
  </g>
</svg>