<?xml version="1.0" encoding="UTF-8"?>
<svg xmlns="http://www.w3.org/2000/svg" viewBox="0 0 720 720">
  <g transform="translate(0, 560) scale(1, -1)">
    <path d="M260 380V100H350Q418 100 479.0 175.5Q540 251 540 335Q540 350 550.0 360.0Q560 370 575 370H684Q699 370 709.5 360.0Q720 350 720.0 335.0Q720 320 709.5 310.0Q699 300 684 300H610Q610 243 577.0 181.0Q544 119 482.5 74.5Q421 30 350 30H260V20Q260 -21 289.5 -50.5Q319 -80 360 -80H720V-150H360Q266 -150 215 -70L125 -160H90V560H125L215 470Q267 550 360 550H720V480H360Q319 480 289.5 450.0Q260 420 260 380ZM720 100V30H575Q560 30 550.0 40.0Q540 50 540.0 65.0Q540 80 550.0 90.0Q560 100 575 100Z" fill="currentColor"/>
  </g>
</svg>