<?xml version="1.0" encoding="UTF-8"?>
<svg xmlns="http://www.w3.org/2000/svg" viewBox="0 0 720 720">
  <g transform="translate(0, 560) scale(1, -1)">
    <path d="M566.0 406.0Q540 432 540.0 470.0Q540 508 566.0 534.0Q592 560 630.0 560.0Q668 560 694.0 534.0Q720 508 720.0 470.0Q720 432 694.0 406.0Q668 380 630.0 380.0Q592 380 566.0 406.0ZM720 370V300H662L608 190H720V120H522L614 -3Q620 -11 620.0 -25.0Q620 -39 609.5 -49.5Q599 -60 585 -60H312L349 -99Q360 -110 360 -123Q360 -137 349.5 -148.5Q339 -160 325 -160Q310 -160 299 -149L200 -50Q190 -41 190 -25Q190 -11 200.0 -0.5Q210 10 225 10H513L421 133L420 134L419 136Q418 136 418.0 137.5Q418 139 418 140L417 141Q417 142 416 142Q414 146 414 149V160V161L415 162V164L416 165Q416 166 417 168V169Q417 170 417.5 170.0Q418 170 418 171L482 300H248L167 139Q158 120 135 120Q119 120 109.5 130.5Q100 141 100 155Q100 166 103 171L193 350Q202 370 225 370Z" fill="currentColor"/>
  </g>
</svg>