<?xml version="1.0" encoding="UTF-8"?>
<svg xmlns="http://www.w3.org/2000/svg" viewBox="0 0 720 720">
  <g transform="translate(0, 560) scale(1, -1)">
    <path d="M684 -124V-160H648V-124ZM612 -124V-160H576V-124ZM540 -124V-160H504V-124ZM468 -124V-160H432V-124ZM396 -124V-160H360V-124ZM324 -124V-160H288V-124ZM252 -124V-160H216V-124ZM180 -124V-160H144V-124ZM108 -124V-160H72V-124ZM36 -124V-160H0V-124ZM720 -88V-124H684V-88ZM648 -88V-124H612V-88ZM576 -88V-124H540V-88ZM504 -88V-124H468V-88ZM432 -88V-124H396V-88ZM360 -88V-124H324V-88ZM288 -88V-124H252V-88ZM216 -88V-124H180V-88ZM144 -88V-124H108V-88ZM72 -88V-124H36V-88ZM684 -52V-88H648V-52ZM612 -52V-88H576V-52ZM540 -52V-88H504V-52ZM468 -52V-88H432V-52ZM396 -52V-88H360V-52ZM324 -52V-88H288V-52ZM252 -52V-88H216V-52ZM180 -52V-88H144V-52ZM108 -52V-88H72V-52ZM36 -52V-88H0V-52ZM720 -16V-52H684V-16ZM648 -16V-52H612V-16ZM576 -16V-52H540V-16ZM504 -16V-52H468V-16ZM432 -16V-52H396V-16ZM360 -16V-52H324V-16ZM288 -16V-52H252V-16ZM216 -16V-52H180V-16ZM144 -16V-52H108V-16ZM72 -16V-52H36V-16ZM684 20V-16H648V20ZM612 20V-16H576V20ZM540 20V-16H504V20ZM468 20V-16H432V20ZM396 20V-16H360V20ZM324 20V-16H288V20ZM252 20V-16H216V20ZM180 20V-16H144V20ZM108 20V-16H72V20ZM36 20V-16H0V20ZM720 56V20H684V56ZM648 56V20H612V56ZM576 56V20H540V56ZM504 56V20H468V56ZM432 56V20H396V56ZM360 56V20H324V56ZM288 56V20H252V56ZM216 56V20H180V56ZM144 56V20H108V56ZM72 56V20H36V56ZM684 92V56H648V92ZM612 92V56H576V92ZM540 92V56H504V92ZM468 92V56H432V92ZM396 92V56H360V92ZM324 92V56H288V92ZM252 92V56H216V92ZM180 92V56H144V92ZM108 92V56H72V92ZM36 92V56H0V92ZM720 128V92H684V128ZM648 128V92H612V128ZM576 128V92H540V128ZM504 128V92H468V128ZM432 128V92H396V128ZM360 128V92H324V128ZM288 128V92H252V128ZM216 128V92H180V128ZM144 128V92H108V128ZM72 128V92H36V128ZM684 164V128H648V164ZM612 164V128H576V164ZM540 164V128H504V164ZM468 164V128H432V164ZM396 164V128H360V164ZM324 164V128H288V164ZM252 164V128H216V164ZM180 164V128H144V164ZM108 164V128H72V164ZM36 164V128H0V164ZM720 200V164H684V200ZM648 200V164H612V200ZM576 200V164H540V200ZM504 200V164H468V200ZM432 200V164H396V200ZM360 200V164H324V200ZM288 200V164H252V200ZM216 200V164H180V200ZM144 200V164H108V200ZM72 200V164H36V200ZM684 236V200H648V236ZM612 236V200H576V236ZM540 236V200H504V236ZM468 236V200H432V236ZM396 236V200H360V236ZM324 236V200H288V236ZM252 236V200H216V236ZM180 236V200H144V236ZM108 236V200H72V236ZM36 236V200H0V236ZM720 272V236H684V272ZM648 272V236H612V272ZM576 272V236H540V272ZM504 272V236H468V272ZM432 272V236H396V272ZM360 272V236H324V272ZM288 272V236H252V272ZM216 272V236H180V272ZM144 272V236H108V272ZM72 272V236H36V272ZM684 308V272H648V308ZM612 308V272H576V308ZM540 308V272H504V308ZM468 308V272H432V308ZM396 308V272H360V308ZM324 308V272H288V308ZM252 308V272H216V308ZM180 308V272H144V308ZM108 308V272H72V308ZM36 308V272H0V308ZM720 344V308H684V344ZM648 344V308H612V344ZM576 344V308H540V344ZM504 344V308H468V344ZM432 344V308H396V344ZM360 344V308H324V344ZM288 344V308H252V344ZM216 344V308H180V344ZM144 344V308H108V344ZM72 344V308H36V344ZM684 380V344H648V380ZM612 380V344H576V380ZM540 380V344H504V380ZM468 380V344H432V380ZM396 380V344H360V380ZM324 380V344H288V380ZM252 380V344H216V380ZM180 380V344H144V380ZM108 380V344H72V380ZM36 380V344H0V380ZM720 416V380H684V416ZM648 416V380H612V416ZM576 416V380H540V416ZM504 416V380H468V416ZM432 416V380H396V416ZM360 416V380H324V416ZM288 416V380H252V416ZM216 416V380H180V416ZM144 416V380H108V416ZM72 416V380H36V416ZM684 452V416H648V452ZM612 452V416H576V452ZM540 452V416H504V452ZM468 452V416H432V452ZM396 452V416H360V452ZM324 452V416H288V452ZM252 452V416H216V452ZM180 452V416H144V452ZM108 452V416H72V452ZM36 452V416H0V452ZM720 488V452H684V488ZM648 488V452H612V488ZM576 488V452H540V488ZM504 488V452H468V488ZM432 488V452H396V488ZM360 488V452H324V488ZM288 488V452H252V488ZM216 488V452H180V488ZM144 488V452H108V488ZM72 488V452H36V488ZM684 524V488H648V524ZM612 524V488H576V524ZM540 524V488H504V524ZM468 524V488H432V524ZM396 524V488H360V524ZM324 524V488H288V524ZM252 524V488H216V524ZM180 524V488H144V524ZM108 524V488H72V524ZM36 524V488H0V524ZM720 560V524H684V560ZM648 560V524H612V560ZM576 560V524H540V560ZM504 560V524H468V560ZM432 560V524H396V560ZM360 560V524H324V560ZM288 560V524H252V560ZM216 560V524H180V560ZM144 560V524H108V560ZM72 560V524H36V560Z" fill="currentColor"/>
  </g>
</svg>