<?xml version="1.0" encoding="UTF-8"?>
<svg xmlns="http://www.w3.org/2000/svg" viewBox="0 0 720 720">
  <g transform="translate(0, 560) scale(1, -1)">
    <path d="M360 -124V-160H324V-124ZM288 -124V-160H252V-124ZM216 -124V-160H180V-124ZM144 -124V-160H108V-124ZM72 -124V-160H36V-124ZM324 -88V-124H288V-88ZM252 -88V-124H216V-88ZM180 -88V-124H144V-88ZM108 -88V-124H72V-88ZM36 -88V-124H0V-88ZM360 -52V-88H324V-52ZM288 -52V-88H252V-52ZM216 -52V-88H180V-52ZM144 -52V-88H108V-52ZM72 -52V-88H36V-52ZM324 -16V-52H288V-16ZM252 -16V-52H216V-16ZM180 -16V-52H144V-16ZM108 -16V-52H72V-16ZM36 -16V-52H0V-16ZM360 20V-16H324V20ZM288 20V-16H252V20ZM216 20V-16H180V20ZM144 20V-16H108V20ZM72 20V-16H36V20ZM324 56V20H288V56ZM252 56V20H216V56ZM180 56V20H144V56ZM108 56V20H72V56ZM36 56V20H0V56ZM360 92V56H324V92ZM288 92V56H252V92ZM216 92V56H180V92ZM144 92V56H108V92ZM72 92V56H36V92ZM324 128V92H288V128ZM252 128V92H216V128ZM180 128V92H144V128ZM108 128V92H72V128ZM36 128V92H0V128ZM360 164V128H324V164ZM288 164V128H252V164ZM216 164V128H180V164ZM144 164V128H108V164ZM72 164V128H36V164ZM324 200V164H288V200ZM252 200V164H216V200ZM180 200V164H144V200ZM108 200V164H72V200ZM36 200V164H0V200ZM360 236V200H324V236ZM288 236V200H252V236ZM216 236V200H180V236ZM144 236V200H108V236ZM72 236V200H36V236ZM324 272V236H288V272ZM252 272V236H216V272ZM180 272V236H144V272ZM108 272V236H72V272ZM36 272V236H0V272ZM360 308V272H324V308ZM288 308V272H252V308ZM216 308V272H180V308ZM144 308V272H108V308ZM72 308V272H36V308ZM324 344V308H288V344ZM252 344V308H216V344ZM180 344V308H144V344ZM108 344V308H72V344ZM36 344V308H0V344ZM360 380V344H324V380ZM288 380V344H252V380ZM216 380V344H180V380ZM144 380V344H108V380ZM72 380V344H36V380ZM324 416V380H288V416ZM252 416V380H216V416ZM180 416V380H144V416ZM108 416V380H72V416ZM36 416V380H0V416ZM360 452V416H324V452ZM288 452V416H252V452ZM216 452V416H180V452ZM144 452V416H108V452ZM72 452V416H36V452ZM324 488V452H288V488ZM252 488V452H216V488ZM180 488V452H144V488ZM108 488V452H72V488ZM36 488V452H0V488ZM360 524V488H324V524ZM288 524V488H252V524ZM216 524V488H180V524ZM144 524V488H108V524ZM72 524V488H36V524ZM324 560V524H288V560ZM252 560V524H216V560ZM180 560V524H144V560ZM108 560V524H72V560ZM36 560V524H0V560Z" fill="currentColor"/>
  </g>
</svg>