<?xml version="1.0" encoding="UTF-8"?>
<svg xmlns="http://www.w3.org/2000/svg" viewBox="0 0 720 720">
  <g transform="translate(0, 560) scale(1, -1)">
    <path d="M720 560V524H684V560ZM720 488V452H684V488H648V524H612V560H648V524H684V488ZM720 416V380H684V416H648V452H612V488H576V524H540V560H576V524H612V488H648V452H684V416ZM720 344V308H684V344H648V380H612V416H576V452H540V488H504V524H468V560H504V524H540V488H576V452H612V416H648V380H684V344ZM720 272V236H684V272H648V308H612V344H576V380H540V416H504V452H468V488H432V524H396V560H432V524H468V488H504V452H540V416H576V380H612V344H648V308H684V272ZM36 524V560H72V524ZM36 524V488H0V524ZM72 524H108V560H144V524H108V488H72ZM144 524H180V560H216V524H180V488H144ZM216 524H252V560H288V524H252V488H216ZM288 524H324V560H360V524H324V488H288ZM360 524H396V488H360ZM36 488H72V452H36ZM108 488H144V452H108ZM180 488H216V452H180ZM252 488H288V452H252ZM324 488H360V452H324ZM396 488H432V452H396ZM36 452V416H0V452ZM72 452H108V416H72ZM144 452H180V416H144ZM216 452H252V416H216ZM288 452H324V416H288ZM360 452H396V416H360ZM432 452H468V416H432ZM36 416H72V380H36ZM108 416H144V380H108ZM180 416H216V380H180ZM252 416H288V380H252ZM324 416H360V380H324ZM396 416H432V380H396ZM468 416H504V380H468ZM36 380V344H0V380ZM72 380H108V344H72ZM144 380H180V344H144ZM216 380H252V344H216ZM288 380H324V344H288ZM360 380H396V344H360ZM432 380H468V344H432ZM504 380H540V344H504ZM36 344H72V308H36ZM108 344H144V308H108ZM180 344H216V308H180ZM252 344H288V308H252ZM324 344H360V308H324ZM396 344H432V308H396ZM468 344H504V308H468ZM540 344H576V308H540ZM36 308V272H0V308ZM72 308H108V272H72ZM144 308H180V272H144ZM216 308H252V272H216ZM288 308H324V272H288ZM360 308H396V272H360ZM432 308H468V272H432ZM504 308H540V272H504ZM576 308H612V272H576ZM36 272H72V236H36ZM108 272H144V236H108ZM180 272H216V236H180ZM252 272H288V236H252ZM324 272H360V236H324ZM396 272H432V236H396ZM468 272H504V236H468ZM540 272H576V236H540ZM612 272H648V236H612ZM0 -160V236H36V200H72V236H108V200H144V236H180V200H216V236H252V200H288V236H324V200H360V236H396V200H432V236H468V200H504V236H540V200H576V236H612V200H648V236H684V200H720V-160Z" fill="currentColor"/>
  </g>
</svg>