<?xml version="1.0" encoding="UTF-8"?>
<svg xmlns="http://www.w3.org/2000/svg" viewBox="0 0 720 720">
  <g transform="translate(0, 560) scale(1, -1)">
    <path d="M720 -124V-160H684V-124ZM648 -124V-160H612V-124ZM576 -124V-160H540V-124ZM504 -124V-160H468V-124ZM432 -124V-160H396V-124ZM684 -88V-124H648V-88ZM612 -88V-124H576V-88ZM540 -88V-124H504V-88ZM468 -88V-124H432V-88ZM396 -88V-124H360V-88ZM720 -52V-88H684V-52ZM648 -52V-88H612V-52ZM576 -52V-88H540V-52ZM504 -52V-88H468V-52ZM432 -52V-88H396V-52ZM684 -16V-52H648V-16ZM612 -16V-52H576V-16ZM540 -16V-52H504V-16ZM468 -16V-52H432V-16ZM396 -16V-52H360V-16ZM720 20V-16H684V20ZM648 20V-16H612V20ZM576 20V-16H540V20ZM504 20V-16H468V20ZM432 20V-16H396V20ZM684 56V20H648V56ZM612 56V20H576V56ZM540 56V20H504V56ZM468 56V20H432V56ZM396 56V20H360V56ZM720 92V56H684V92ZM648 92V56H612V92ZM576 92V56H540V92ZM504 92V56H468V92ZM432 92V56H396V92ZM684 128V92H648V128ZM612 128V92H576V128ZM540 128V92H504V128ZM468 128V92H432V128ZM396 128V92H360V128ZM720 164V128H684V164ZM648 164V128H612V164ZM576 164V128H540V164ZM504 164V128H468V164ZM432 164V128H396V164ZM684 200V164H648V200ZM612 200V164H576V200ZM540 200V164H504V200ZM468 200V164H432V200ZM396 200V164H360V200ZM720 236V200H684V236ZM648 236V200H612V236ZM576 236V200H540V236ZM504 236V200H468V236ZM432 236V200H396V236ZM684 272V236H648V272ZM612 272V236H576V272ZM540 272V236H504V272ZM468 272V236H432V272ZM396 272V236H360V272ZM720 308V272H684V308ZM648 308V272H612V308ZM576 308V272H540V308ZM504 308V272H468V308ZM432 308V272H396V308ZM684 344V308H648V344ZM612 344V308H576V344ZM540 344V308H504V344ZM468 344V308H432V344ZM396 344V308H360V344ZM720 380V344H684V380ZM648 380V344H612V380ZM576 380V344H540V380ZM504 380V344H468V380ZM432 380V344H396V380ZM684 416V380H648V416ZM612 416V380H576V416ZM540 416V380H504V416ZM468 416V380H432V416ZM396 416V380H360V416ZM720 452V416H684V452ZM648 452V416H612V452ZM576 452V416H540V452ZM504 452V416H468V452ZM432 452V416H396V452ZM684 488V452H648V488ZM612 488V452H576V488ZM540 488V452H504V488ZM468 488V452H432V488ZM396 488V452H360V488ZM720 524V488H684V524ZM648 524V488H612V524ZM576 524V488H540V524ZM504 524V488H468V524ZM432 524V488H396V524ZM684 560V524H648V560ZM612 560V524H576V560ZM540 560V524H504V560ZM468 560V524H432V560ZM396 560V524H360V560Z" fill="currentColor"/>
  </g>
</svg>