<?xml version="1.0" encoding="UTF-8"?>
<svg xmlns="http://www.w3.org/2000/svg" viewBox="0 0 720 720">
  <g transform="translate(0, 560) scale(1, -1)">
    <path d="M720 128V92H684V128H648V164H612V200H576V164H540V200H504V164H468V200H432V164H396V200H360V164H324V200H288V164H252V200H216V164H180V200H144V164H108V200H72V164H36V200H0V560H720V164H684V200H648V164H684V128ZM720 56V20H684V56H648V92H612V128H576V164H612V128H648V92H684V56ZM720 -16V-52H684V-16H648V20H612V56H576V92H540V128H504V164H540V128H576V92H612V56H648V20H684V-16ZM720 -88V-124H684V-88H648V-52H612V-16H576V20H540V56H504V92H468V128H432V164H468V128H504V92H540V56H576V20H612V-16H648V-52H684V-88ZM36 164V128H0V164ZM72 164H108V128H72ZM144 164H180V128H144ZM216 164H252V128H216ZM288 164H324V128H288ZM360 164H396V128H360ZM36 128H72V92H36ZM108 128H144V92H108ZM180 128H216V92H180ZM252 128H288V92H252ZM324 128H360V92H324ZM396 128H432V92H396ZM36 92V56H0V92ZM72 92H108V56H72ZM144 92H180V56H144ZM216 92H252V56H216ZM288 92H324V56H288ZM360 92H396V56H360ZM432 92H468V56H432ZM36 56H72V20H36ZM108 56H144V20H108ZM180 56H216V20H180ZM252 56H288V20H252ZM324 56H360V20H324ZM396 56H432V20H396ZM468 56H504V20H468ZM36 20V-16H0V20ZM72 20H108V-16H72ZM144 20H180V-16H144ZM216 20H252V-16H216ZM288 20H324V-16H288ZM360 20H396V-16H360ZM432 20H468V-16H432ZM504 20H540V-16H504ZM36 -16H72V-52H36ZM108 -16H144V-52H108ZM180 -16H216V-52H180ZM252 -16H288V-52H252ZM324 -16H360V-52H324ZM396 -16H432V-52H396ZM468 -16H504V-52H468ZM540 -16H576V-52H540ZM36 -52V-88H0V-52ZM72 -52H108V-88H72ZM144 -52H180V-88H144ZM216 -52H252V-88H216ZM288 -52H324V-88H288ZM360 -52H396V-88H360ZM432 -52H468V-88H432ZM504 -52H540V-88H504ZM576 -52H612V-88H576ZM36 -88H72V-124H36ZM108 -88H144V-124H108ZM180 -88H216V-124H180ZM252 -88H288V-124H252ZM324 -88H360V-124H324ZM396 -88H432V-124H396ZM468 -88H504V-124H468ZM540 -88H576V-124H540ZM612 -88H648V-124H612ZM36 -124V-160H0V-124ZM72 -124H108V-160H72ZM144 -124H180V-160H144ZM216 -124H252V-160H216ZM288 -124H324V-160H288ZM360 -124H396V-160H360ZM432 -124H468V-160H432ZM504 -124H540V-160H504ZM576 -124H612V-160H576ZM648 -124H684V-160H648Z" fill="currentColor"/>
  </g>
</svg>