<?xml version="1.0" encoding="UTF-8"?>
<svg xmlns="http://www.w3.org/2000/svg" viewBox="0 0 720 720">
  <g transform="translate(0, 560) scale(1, -1)">
    <path d="M447 -113 360 -26 273 -113Q226 -160 160.0 -160.0Q94 -160 47.0 -113.0Q0 -66 0.0 0.0Q0 66 47 113L134 200L47 287Q0 334 0.0 400.0Q0 466 47.0 513.0Q94 560 160.0 560.0Q226 560 273 513L360 426L447 513Q494 560 560.0 560.0Q626 560 673.0 513.0Q720 466 720.0 400.0Q720 334 673 287L586 200L673 113Q720 66 720.0 0.0Q720 -66 673.0 -113.0Q626 -160 560.0 -160.0Q494 -160 447 -113ZM80 0Q80 -32 103.5 -56.0Q127 -80 160 -80Q194 -80 217 -57L360 87L503 -57Q526 -80 560 -80Q593 -80 616.5 -56.5Q640 -33 640 0Q640 34 617 57L473 200L617 343Q640 366 640 400Q640 433 616.5 456.5Q593 480 560 480Q526 480 503 457L360 313L217 457Q194 480 160 480Q127 480 103.5 456.0Q80 432 80 400Q80 366 103 343L247 200L103 57Q80 34 80 0Z" fill="currentColor"/>
  </g>
</svg>