<?xml version="1.0" encoding="UTF-8"?>
<svg xmlns="http://www.w3.org/2000/svg" viewBox="0 0 720 720">
  <g transform="translate(0, 560) scale(1, -1)">
    <path d="M332.0 468.0Q320 456 320.0 440.0Q320 424 332.0 412.0Q344 400 360.0 400.0Q376 400 388.0 412.0Q400 424 400.0 440.0Q400 456 388.0 468.0Q376 480 360.0 480.0Q344 480 332.0 468.0ZM240 440Q240 490 275.0 525.0Q310 560 360.0 560.0Q410 560 445.0 525.0Q480 490 480 440Q480 402 457.5 371.0Q435 340 400 327V280H600V200H400V137L588 -52L532 -108L360 63L188 -108L132 -52L320 137V200H120V280H320V327Q285 340 262.5 371.0Q240 402 240 440Z" fill="currentColor"/>
  </g>
</svg>