<?xml version="1.0" encoding="UTF-8"?>
<svg xmlns="http://www.w3.org/2000/svg" viewBox="0 0 720 720">
  <g transform="translate(0, 560) scale(1, -1)">
    <path d="M0 480V550H720V480H422Q502 432 525 370H720V300H526Q517 267 493 245Q530 210 530 155Q530 109 501.0 73.5Q472 38 428 30Q440 5 440 -25Q440 -77 403.5 -113.5Q367 -150 315 -150H0V-80H315Q338 -80 354.0 -64.0Q370 -48 370.0 -25.0Q370 -2 354.0 14.0Q338 30 315 30H0V100H405Q428 100 444.0 116.0Q460 132 460.0 155.0Q460 178 444.0 194.0Q428 210 405 210H36Q21 210 10.5 220.0Q0 230 0.0 245.0Q0 260 10.5 270.0Q21 280 36 280H405Q428 280 444.0 296.0Q460 312 460 335Q460 351 434 379Q405 408 362 430Q321 452 280.0 466.0Q239 480 225 480Z" fill="currentColor"/>
  </g>
</svg>