<?xml version="1.0" encoding="UTF-8"?>
<svg xmlns="http://www.w3.org/2000/svg" viewBox="0 0 720 720">
  <g transform="translate(0, 560) scale(1, -1)">
    <path d="M720 -124V-160H684V-124ZM648 -124V-160H612V-124ZM576 -124V-160H540V-124ZM504 -124V-160H468V-124ZM432 -124V-160H396V-124ZM360 -124V-160H324V-124ZM288 -124V-160H252V-124ZM216 -124V-160H180V-124ZM144 -124V-160H108V-124ZM72 -124V-160H36V-124ZM684 -88V-124H648V-88ZM612 -88V-124H576V-88ZM540 -88V-124H504V-88ZM468 -88V-124H432V-88ZM396 -88V-124H360V-88ZM324 -88V-124H288V-88ZM252 -88V-124H216V-88ZM180 -88V-124H144V-88ZM108 -88V-124H72V-88ZM36 -88V-124H0V-88ZM720 -52V-88H684V-52ZM648 -52V-88H612V-52ZM576 -52V-88H540V-52ZM504 -52V-88H468V-52ZM432 -52V-88H396V-52ZM360 -52V-88H324V-52ZM288 -52V-88H252V-52ZM216 -52V-88H180V-52ZM144 -52V-88H108V-52ZM72 -52V-88H36V-52ZM684 -16V-52H648V-16ZM612 -16V-52H576V-16ZM540 -16V-52H504V-16ZM468 -16V-52H432V-16ZM396 -16V-52H360V-16ZM324 -16V-52H288V-16ZM252 -16V-52H216V-16ZM180 -16V-52H144V-16ZM108 -16V-52H72V-16ZM36 -16V-52H0V-16ZM720 20V-16H684V20ZM648 20V-16H612V20ZM576 20V-16H540V20ZM504 20V-16H468V20ZM432 20V-16H396V20ZM360 20V-16H324V20ZM288 20V-16H252V20ZM216 20V-16H180V20ZM144 20V-16H108V20ZM72 20V-16H36V20ZM684 56V20H648V56ZM612 56V20H576V56ZM540 56V20H504V56ZM468 56V20H432V56ZM396 56V20H360V56ZM324 56V20H288V56ZM252 56V20H216V56ZM180 56V20H144V56ZM108 56V20H72V56ZM36 56V20H0V56ZM720 92V56H684V92ZM648 92V56H612V92ZM576 92V56H540V92ZM504 92V56H468V92ZM432 92V56H396V92ZM360 92V56H324V92ZM288 92V56H252V92ZM216 92V56H180V92ZM144 92V56H108V92ZM72 92V56H36V92ZM684 128V92H648V128ZM612 128V92H576V128ZM540 128V92H504V128ZM468 128V92H432V128ZM396 128V92H360V128ZM324 128V92H288V128ZM252 128V92H216V128ZM180 128V92H144V128ZM108 128V92H72V128ZM36 128V92H0V128ZM720 164V128H684V164ZM648 164V128H612V164ZM576 164V128H540V164ZM504 164V128H468V164ZM432 164V128H396V164ZM360 164V128H324V164ZM288 164V128H252V164ZM216 164V128H180V164ZM144 164V128H108V164ZM72 164V128H36V164ZM684 200V164H648V200ZM612 200V164H576V200ZM540 200V164H504V200ZM468 200V164H432V200ZM396 200V164H360V200ZM324 200V164H288V200ZM252 200V164H216V200ZM180 200V164H144V200ZM108 200V164H72V200ZM36 200V164H0V200Z" fill="currentColor"/>
  </g>
</svg>