<?xml version="1.0" encoding="UTF-8"?>
<svg xmlns="http://www.w3.org/2000/svg" viewBox="0 0 720 720">
  <g transform="translate(0, 560) scale(1, -1)">
    <path d="M684 524H720V488H684ZM648 488H684V452H648ZM612 452H648V416H612ZM684 452H720V416H684ZM576 416H612V380H576ZM648 416H684V380H648ZM540 380H576V344H540ZM612 380H648V344H612ZM684 380H720V344H684ZM504 344H540V308H504ZM576 344H612V308H576ZM648 344H684V308H648ZM468 308H504V272H468ZM540 308H576V272H540ZM612 308H648V272H612ZM684 308H720V272H684ZM432 272H468V236H432ZM504 272H540V236H504ZM576 272H612V236H576ZM648 272H684V236H648ZM396 236H432V200H396ZM468 236H504V200H468ZM540 236H576V200H540ZM612 236H648V200H612ZM684 236H720V200H684ZM360 200H396V164H360ZM432 200H468V164H432ZM504 200H540V164H504ZM576 200H612V164H576ZM648 200H684V164H648ZM324 164H360V128H324ZM396 164H432V128H396ZM468 164H504V128H468ZM540 164H576V128H540ZM612 164H648V128H612ZM684 164H720V128H684ZM288 128H324V92H288ZM360 128H396V92H360ZM432 128H468V92H432ZM504 128H540V92H504ZM576 128H612V92H576ZM648 128H684V92H648ZM252 92H288V56H252ZM324 92H360V56H324ZM396 92H432V56H396ZM468 92H504V56H468ZM540 92H576V56H540ZM612 92H648V56H612ZM684 92H720V56H684ZM216 56H252V20H216ZM288 56H324V20H288ZM360 56H396V20H360ZM432 56H468V20H432ZM504 56H540V20H504ZM576 56H612V20H576ZM648 56H684V20H648ZM180 20H216V-16H180ZM252 20H288V-16H252ZM324 20H360V-16H324ZM396 20H432V-16H396ZM468 20H504V-16H468ZM540 20H576V-16H540ZM612 20H648V-16H612ZM684 20H720V-16H684ZM144 -16H180V-52H144ZM216 -16H252V-52H216ZM288 -16H324V-52H288ZM360 -16H396V-52H360ZM432 -16H468V-52H432ZM504 -16H540V-52H504ZM576 -16H612V-52H576ZM648 -16H684V-52H648ZM108 -52H144V-88H108ZM180 -52H216V-88H180ZM252 -52H288V-88H252ZM324 -52H360V-88H324ZM396 -52H432V-88H396ZM468 -52H504V-88H468ZM540 -52H576V-88H540ZM612 -52H648V-88H612ZM684 -52H720V-88H684ZM72 -88H108V-124H72ZM144 -88H180V-124H144ZM216 -88H252V-124H216ZM288 -88H324V-124H288ZM360 -88H396V-124H360ZM432 -88H468V-124H432ZM504 -88H540V-124H504ZM576 -88H612V-124H576ZM648 -88H684V-124H648ZM36 -124H72V-160H36ZM108 -124H144V-160H108ZM180 -124H216V-160H180ZM252 -124H288V-160H252ZM324 -124H360V-160H324ZM396 -124H432V-160H396ZM468 -124H504V-160H468ZM540 -124H576V-160H540ZM612 -124H648V-160H612ZM684 -124H720V-160H684Z" fill="currentColor"/>
  </g>
</svg>