<?xml version="1.0" encoding="UTF-8"?>
<svg xmlns="http://www.w3.org/2000/svg" viewBox="0 0 720 720">
  <g transform="translate(0, 560) scale(1, -1)">
    <path d="M501 496H245L208 226H265Q304 272 356 272Q406 272 435.0 240.0Q464 208 464 153Q464 100 435.0 69.0Q406 38 356 38Q276 38 254 122H193Q196 105 199.0 94.5Q202 84 213.5 60.5Q225 37 240.5 22.5Q256 8 286.5 -4.0Q317 -16 357 -16Q432 -16 479.5 33.5Q527 83 527 162Q527 235 482.5 281.0Q438 327 367 327Q316 327 275 297L295 435H501ZM534 529V402H324L317 354Q337 360 367 360Q451 360 505.5 304.0Q560 248 560 162Q560 71 503.0 11.0Q446 -49 357 -49Q311 -49 274.5 -34.5Q238 -20 218.5 -1.5Q199 17 185.0 44.0Q171 71 167.0 85.0Q163 99 160 115L153 155H280L286 130Q295 97 310.5 84.5Q326 72 356 72Q431 72 431 153Q431 239 356 239Q333 239 320.5 233.0Q308 227 290 205L280 193H170L216 529Z" fill="currentColor"/>
  </g>
</svg>