<?xml version="1.0" encoding="UTF-8"?>
<svg xmlns="http://www.w3.org/2000/svg" viewBox="0 0 720 720">
  <g transform="translate(0, 560) scale(1, -1)">
    <path d="M478 365Q478 320 454.0 298.5Q430 277 378 277H220V453H378Q425 453 451.5 434.5Q478 416 478 365ZM465 252Q508 273 527.0 302.0Q546 331 546 374Q546 440 505.5 475.0Q465 510 390 510H155V0H220V220H388Q432 220 452.0 198.0Q472 176 472 129V83Q472 33 486 0H565V16Q534 37 534 97Q534 102 534.5 114.0Q535 126 535 132Q535 160 531.5 178.5Q528 197 511.5 218.0Q495 239 465 252ZM445 365Q445 400 431.0 410.0Q417 420 378 420H253V310H378Q420 310 432.5 321.0Q445 332 445 365ZM526 252Q568 212 568 132Q568 125 567.5 113.5Q567 102 567 97Q567 55 583 44L598 34V-33H464L456 -13Q439 25 439 83V129Q439 146 436 156Q432 174 423.0 180.5Q414 187 388 187H253V-33H122V543H390Q476 543 527.0 498.5Q578 454 578 374Q578 295 526 252Z" fill="currentColor"/>
  </g>
</svg>