<?xml version="1.0" encoding="UTF-8"?>
<svg xmlns="http://www.w3.org/2000/svg" viewBox="0 0 720 720">
  <g transform="translate(0, 560) scale(1, -1)">
    <path d="M527.0 187.0Q514 200 495.0 200.0Q476 200 463.0 187.0Q450 174 450.0 155.0Q450 136 463.0 123.0Q476 110 495.0 110.0Q514 110 527.0 123.0Q540 136 540.0 155.0Q540 174 527.0 187.0ZM590.0 60.0Q550 20 495.0 20.0Q440 20 400.0 60.0Q360 100 360.0 155.0Q360 210 400.0 250.0Q440 290 495.0 290.0Q550 290 590.0 250.0Q630 210 630.0 155.0Q630 100 590.0 60.0ZM639 -160Q652 -124 674.5 -97.0Q697 -70 720 -70V-160ZM720 470Q402 470 246.0 314.0Q90 158 90 -160H0Q0 196 182.0 378.0Q364 560 720 560Z" fill="currentColor"/>
  </g>
</svg>