<?xml version="1.0" encoding="UTF-8"?>
<svg xmlns="http://www.w3.org/2000/svg" viewBox="0 0 720 720">
  <g transform="translate(0, 560) scale(1, -1)">
    <path d="M639 560H720V470Q698 470 686.5 471.0Q675 472 659.5 475.5Q644 479 637.0 489.0Q630 499 630 515Q630 534 639 560ZM720 290Q649 290 601.0 275.0Q553 260 541 245Q553 230 601.0 215.0Q649 200 720 200V110Q612 110 531.0 145.0Q450 180 450.0 245.0Q450 310 531.0 345.0Q612 380 720 380ZM720 -70V-160Q364 -160 182.0 22.0Q0 204 0 560H90Q90 242 246.0 86.0Q402 -70 720 -70Z" fill="currentColor"/>
  </g>
</svg>