<?xml version="1.0" encoding="UTF-8"?>
<svg xmlns="http://www.w3.org/2000/svg" viewBox="0 0 720 720">
  <g transform="translate(0, 560) scale(1, -1)">
    <path d="M672 380H720V20H672Q625 -62 541.5 -111.0Q458 -160 360 -160Q256 -160 169.5 -105.5Q83 -51 38 39L360 200L38 361Q83 451 169.5 505.5Q256 560 360 560Q458 560 541.5 511.0Q625 462 672 380ZM283.0 393.0Q296 380 315.0 380.0Q334 380 347.0 393.0Q360 406 360.0 425.0Q360 444 347.0 457.0Q334 470 315.0 470.0Q296 470 283.0 457.0Q270 444 270.0 425.0Q270 406 283.0 393.0Z" fill="currentColor"/>
  </g>
</svg>