<?xml version="1.0" encoding="UTF-8"?>
<svg xmlns="http://www.w3.org/2000/svg" viewBox="0 0 720 720">
  <g transform="translate(0, 560) scale(1, -1)">
    <path d="M359 38Q314 38 285.0 65.5Q256 93 256 136Q256 180 285.0 207.0Q314 234 360.0 234.0Q406 234 435.0 207.0Q464 180 464.0 136.0Q464 92 435.0 65.0Q406 38 359 38ZM446 363Q446 328 422.5 307.0Q399 286 360.0 286.0Q321 286 297.5 307.0Q274 328 274 363Q274 399 297.5 420.5Q321 442 360.0 442.0Q399 442 422.5 420.5Q446 399 446 363ZM441 261Q479 284 494.0 306.5Q509 329 509 364Q509 422 467.5 459.0Q426 496 360.0 496.0Q294 496 252.5 459.0Q211 422 211 364Q211 330 225.5 307.5Q240 285 278 261Q193 221 193 138Q193 70 239.5 27.0Q286 -16 360.0 -16.0Q434 -16 480.5 27.0Q527 70 527 137Q527 220 441 261ZM359 72Q431 72 431 136Q431 166 412.5 183.5Q394 201 360.0 201.0Q326 201 307.5 183.5Q289 166 289.0 136.0Q289 106 307.5 89.0Q326 72 359 72ZM307 363Q307 319 360.0 319.0Q413 319 413 363Q413 409 360.0 409.0Q307 409 307 363ZM500 263Q560 213 560 137Q560 55 503.0 3.0Q446 -49 360.0 -49.0Q274 -49 217.0 3.5Q160 56 160 138Q160 214 220 263Q178 302 178 364Q178 437 230.0 483.0Q282 529 360.0 529.0Q438 529 490.0 483.0Q542 437 542 364Q542 302 500 263Z" fill="currentColor"/>
  </g>
</svg>