<?xml version="1.0" encoding="UTF-8"?>
<svg xmlns="http://www.w3.org/2000/svg" viewBox="0 0 720 720">
  <g transform="translate(0, 560) scale(1, -1)">
    <path d="M240 200Q240 315 169.5 397.5Q99 480 0 480V560Q132 560 226.0 454.5Q320 349 320.0 200.0Q320 51 226.0 -54.5Q132 -160 0 -160V-80Q99 -80 169.5 2.0Q240 84 240 200ZM480 200Q480 84 550.5 2.0Q621 -80 720 -80V-160Q588 -160 494.0 -54.5Q400 51 400.0 200.0Q400 349 494.0 454.5Q588 560 720 560V480Q621 480 550.5 397.5Q480 315 480 200Z" fill="currentColor"/>
  </g>
</svg>