<?xml version="1.0" encoding="UTF-8"?>
<svg xmlns="http://www.w3.org/2000/svg" viewBox="0 0 720 720">
  <g transform="translate(0, 560) scale(1, -1)">
    <path d="M204 324H266Q274 442 366 442Q408 442 436.0 415.5Q464 389 464 349Q464 289 397 251L332 215Q254 171 226.0 126.5Q198 82 193 0H523V61H262Q267 92 286.5 115.0Q306 138 352 163L422 201Q527 259 527 351Q527 415 483.0 455.5Q439 496 368 496Q209 496 204 324ZM171 325Q173 386 192.5 428.5Q212 471 243.5 491.5Q275 512 305.0 520.5Q335 529 368 529Q451 529 505.5 479.5Q560 430 560 351Q560 238 438 172L368 134Q329 112 312 94H556V-33H158L160 2Q164 90 198.5 143.5Q233 197 316 244L380 280Q431 308 431 349Q431 375 413.0 392.0Q395 409 366 409Q327 409 314.5 387.0Q302 365 299 322L297 291H170Z" fill="currentColor"/>
  </g>
</svg>