<?xml version="1.0" encoding="UTF-8"?>
<svg xmlns="http://www.w3.org/2000/svg" viewBox="0 0 720 720">
  <g transform="translate(0, 560) scale(1, -1)">
    <path d="M360 38Q323 38 303.0 62.0Q283 86 283 131V164H217V119Q217 57 255.0 20.5Q293 -16 359 -16Q426 -16 464.5 22.5Q503 61 503 127V510H438V151Q438 97 421.5 67.5Q405 38 360 38ZM536 127Q536 49 488.0 0.0Q440 -49 359 -49Q281 -49 232.5 -2.5Q184 44 184 119V197H316V131Q316 97 326.5 84.5Q337 72 360 72Q387 72 396.0 88.0Q405 104 405 151V543H536Z" fill="currentColor"/>
  </g>
</svg>