<?xml version="1.0" encoding="UTF-8"?>
<svg xmlns="http://www.w3.org/2000/svg" viewBox="0 0 720 720">
  <g transform="translate(0, 560) scale(1, -1)">
    <path d="M720 20H630V-160H450V-70H540V20H180V-160H0V-70H90V20H0Q0 37 22.5 64.0Q45 91 67.5 126.0Q90 161 90 200Q90 279 166 330L13 483L77 547L255 368Q302 380 360 380Q412 380 452 371Q456 400 464.5 426.0Q473 452 487.5 481.0Q502 510 527.5 527.0Q553 544 585 544Q637 544 671.0 510.5Q705 477 718 439Q706 435 677.0 425.5Q648 416 632 410Q630 415 627.0 422.5Q624 430 611.5 442.0Q599 454 585.0 454.0Q571 454 557.0 418.5Q543 383 538 340Q583 314 606.5 277.0Q630 240 630 200Q630 161 652.5 126.0Q675 91 697.5 64.0Q720 37 720 20ZM193.0 213.0Q206 200 225.0 200.0Q244 200 257.0 213.0Q270 226 270.0 245.0Q270 264 257.0 277.0Q244 290 225.0 290.0Q206 290 193.0 277.0Q180 264 180.0 245.0Q180 226 193.0 213.0ZM463.0 213.0Q476 200 495.0 200.0Q514 200 527.0 213.0Q540 226 540.0 245.0Q540 264 527.0 277.0Q514 290 495.0 290.0Q476 290 463.0 277.0Q450 264 450.0 245.0Q450 226 463.0 213.0Z" fill="currentColor"/>
  </g>
</svg>