<?xml version="1.0" encoding="UTF-8"?>
<svg xmlns="http://www.w3.org/2000/svg" viewBox="0 0 720 720">
  <g transform="translate(0, 560) scale(1, -1)">
    <path d="M63 200Q84 200 101.0 187.0Q118 174 124 153Q135 110 154 62Q179 -4 203 -30Q222 -15 241 23Q270 83 270 137Q270 163 288.5 181.5Q307 200 333 200H450Q547 200 618 146Q702 81 702 -25Q702 -90 664 -160H486Q558 -84 558 -25Q558 13 526.0 34.5Q494 56 450 56V-160H249L270 -149V-137Q235 -160 198 -160Q110 -160 45 -5Q40 8 34.5 21.5Q29 35 25.0 46.5Q21 58 17.5 69.5Q14 81 11.0 90.0Q8 99 6.0 105.5Q4 112 3 116L2 121Q0 133 0 137Q0 162 18.0 181.0Q36 200 63 200ZM462.0 469.0Q504 432 504.0 380.0Q504 328 462.0 291.0Q420 254 360.0 254.0Q300 254 258.0 291.0Q216 328 216.0 380.0Q216 432 258.0 469.0Q300 506 360.0 506.0Q420 506 462.0 469.0Z" fill="currentColor"/>
  </g>
</svg>