<?xml version="1.0" encoding="UTF-8"?>
<svg xmlns="http://www.w3.org/2000/svg" viewBox="0 0 720 720">
  <g transform="translate(0, 560) scale(1, -1)">
    <path d="M450 137Q450 45 502.5 5.5Q555 -34 657 -34Q683 -34 701.5 -52.5Q720 -71 720.0 -97.0Q720 -123 701.5 -141.5Q683 -160 657 -160Q574 -160 511 -139L532 -160H122Q90 -87 90 -24Q90 69 136 130Q188 200 270 200H387Q413 200 431.5 181.5Q450 163 450 137ZM258.0 291.0Q216 328 216.0 380.0Q216 432 258.0 469.0Q300 506 360.0 506.0Q420 506 462.0 469.0Q504 432 504.0 380.0Q504 328 462.0 291.0Q420 254 360.0 254.0Q300 254 258.0 291.0Z" fill="currentColor"/>
  </g>
</svg>