<?xml version="1.0" encoding="UTF-8"?>
<svg xmlns="http://www.w3.org/2000/svg" viewBox="0 0 720 720">
  <g transform="translate(0, 560) scale(1, -1)">
    <path d="M361 442Q402 442 425.0 419.5Q448 397 448 358Q448 312 420.0 296.5Q392 281 326 280V228H360Q463 228 463 138Q463 91 435.5 64.5Q408 38 360 38Q262 38 256 144H194Q200 63 240.0 23.5Q280 -16 358 -16Q434 -16 480.0 26.0Q526 68 526 139Q526 186 506.5 214.0Q487 242 442 257Q511 284 511 360Q511 424 471.0 460.0Q431 496 360 496Q208 496 205 336H266Q268 442 361 442ZM299 313H326Q387 314 401.0 321.5Q415 329 415 358Q415 385 402.5 397.0Q390 409 361 409Q323 409 311.5 392.5Q300 376 299 335ZM293 303H171L172 337Q174 427 223.5 478.0Q273 529 360 529Q442 529 493.0 483.5Q544 438 544 360Q544 298 507 260Q559 219 559 139Q559 55 502.5 3.0Q446 -49 358 -49Q269 -49 218.5 0.5Q168 50 161 142L159 177H287L289 146Q291 102 306.0 87.0Q321 72 360 72Q430 72 430 138Q430 170 415.0 182.5Q400 195 360 195L335 194H293Z" fill="currentColor"/>
  </g>
</svg>