<?xml version="1.0" encoding="UTF-8"?>
<svg xmlns="http://www.w3.org/2000/svg" viewBox="0 0 720 720">
  <g transform="translate(0, 560) scale(1, -1)">
    <path d="M103.0 483.0Q90 496 90.0 515.0Q90 534 103.0 547.0Q116 560 135.0 560.0Q154 560 167.0 547.0Q180 534 180.0 515.0Q180 496 167.0 483.0Q154 470 135.0 470.0Q116 470 103.0 483.0ZM13.0 303.0Q0 316 0.0 335.0Q0 354 13.0 367.0Q26 380 45.0 380.0Q64 380 77.0 367.0Q90 354 90.0 335.0Q90 316 77.0 303.0Q64 290 45.0 290.0Q26 290 13.0 303.0ZM103.0 123.0Q90 136 90.0 155.0Q90 174 103.0 187.0Q116 200 135.0 200.0Q154 200 167.0 187.0Q180 174 180.0 155.0Q180 136 167.0 123.0Q154 110 135.0 110.0Q116 110 103.0 123.0ZM13.0 -57.0Q0 -44 0.0 -25.0Q0 -6 13.0 7.0Q26 20 45.0 20.0Q64 20 77.0 7.0Q90 -6 90.0 -25.0Q90 -44 77.0 -57.0Q64 -70 45.0 -70.0Q26 -70 13.0 -57.0ZM283.0 -147.0Q270 -134 270.0 -115.0Q270 -96 283.0 -83.0Q296 -70 315.0 -70.0Q334 -70 347.0 -83.0Q360 -96 360.0 -115.0Q360 -134 347.0 -147.0Q334 -160 315.0 -160.0Q296 -160 283.0 -147.0ZM643.0 -147.0Q630 -134 630.0 -115.0Q630 -96 643.0 -83.0Q656 -70 675.0 -70.0Q694 -70 707.0 -83.0Q720 -96 720.0 -115.0Q720 -134 707.0 -147.0Q694 -160 675.0 -160.0Q656 -160 643.0 -147.0ZM463.0 33.0Q450 46 450.0 65.0Q450 84 463.0 97.0Q476 110 495.0 110.0Q514 110 527.0 97.0Q540 84 540.0 65.0Q540 46 527.0 33.0Q514 20 495.0 20.0Q476 20 463.0 33.0ZM373.0 303.0Q360 316 360.0 335.0Q360 354 373.0 367.0Q386 380 405.0 380.0Q424 380 437.0 367.0Q450 354 450.0 335.0Q450 316 437.0 303.0Q424 290 405.0 290.0Q386 290 373.0 303.0ZM643.0 393.0Q630 406 630.0 425.0Q630 444 643.0 457.0Q656 470 675.0 470.0Q694 470 707.0 457.0Q720 444 720.0 425.0Q720 406 707.0 393.0Q694 380 675.0 380.0Q656 380 643.0 393.0Z" fill="currentColor"/>
  </g>
</svg>