<?xml version="1.0" encoding="UTF-8"?>
<svg xmlns="http://www.w3.org/2000/svg" viewBox="0 0 720 720">
  <g transform="translate(0, 560) scale(1, -1)">
    <path d="M559 56Q559 143 577.0 182.5Q595 222 671 274V320L589 370V442H663L687 516H720V-160H644Q623 -100 583.0 -53.5Q543 -7 500.0 16.5Q457 40 422.5 51.0Q388 62 365 62Q283 62 235.0 18.5Q187 -25 187 -104Q187 -119 202 -160H121Q113 -130 113 -106Q113 -5 186.0 63.5Q259 132 361 132Q465 132 559 56ZM248 -160Q233 -119 233 -104Q233 -50 272.0 -19.0Q311 12 367 12Q386 12 413.0 3.5Q440 -5 473.5 -23.0Q507 -41 539.5 -77.0Q572 -113 591 -160Z" fill="currentColor"/>
  </g>
</svg>