<?xml version="1.0" encoding="UTF-8"?>
<svg xmlns="http://www.w3.org/2000/svg" viewBox="0 0 720 720">
  <g transform="translate(0, 560) scale(1, -1)">
    <path d="M622 386Q520 386 520 354Q520 320 720 320V26Q680 -16 613.5 -39.5Q547 -63 482.5 -70.0Q418 -77 357.5 -81.5Q297 -86 257.0 -98.0Q217 -110 212 -136Q182 -123 159.5 -99.0Q137 -75 110.5 -32.5Q84 10 72 26Q105 88 140.5 121.0Q176 154 236 154Q342 148 354 148Q446 148 548 188Q406 200 406 270Q406 285 427.0 341.5Q448 398 448 414Q448 418 432.5 437.5Q417 457 393.5 491.5Q370 526 354 560H720V510H598Q520 510 520 478Q520 459 559.5 452.5Q599 446 720 446V386Z" fill="currentColor"/>
  </g>
</svg>