<?xml version="1.0" encoding="UTF-8"?>
<svg xmlns="http://www.w3.org/2000/svg" viewBox="0 0 720 720">
  <g transform="translate(0, 560) scale(1, -1)">
    <path d="M720 392Q669 380 630 380Q507 380 425 475Q416 471 404.0 459.5Q392 448 376.0 413.5Q360 379 360 335Q360 319 361.5 307.5Q363 296 377.5 274.0Q392 252 418.0 237.5Q444 223 499.0 211.5Q554 200 630 200Q673 200 720 211V119Q675 110 630 110V-160H0Q7 -153 20.5 -140.5Q34 -128 74.5 -97.0Q115 -66 156.0 -42.5Q197 -19 253.5 0.5Q310 20 360 20Q457 20 540 3V114Q305 138 274 290H45Q28 292 17.0 304.5Q6 317 6.0 334.0Q6 351 17.0 363.0Q28 375 45 377V380Q26 380 13.0 393.0Q0 406 0.0 425.0Q0 444 13.0 457.0Q26 470 45 470H90V515Q90 534 103.0 547.0Q116 560 135.0 560.0Q154 560 167.0 547.0Q180 534 180 515V470H302Q328 519 377 551Q375 554 373 560H474Q529 470 630 470Q672 470 720 484Z" fill="currentColor"/>
  </g>
</svg>