<?xml version="1.0" encoding="UTF-8"?>
<svg xmlns="http://www.w3.org/2000/svg" viewBox="0 0 720 720">
  <g transform="translate(0, 560) scale(1, -1)">
    <path d="M0 0Q66 0 113.0 41.0Q160 82 160 140Q160 201 116.5 253.5Q73 306 0 343V430Q117 480 240 480H480Q603 480 720 430V343Q647 306 603.5 253.5Q560 201 560 140Q560 82 607.0 41.0Q654 0 720 0V-80Q621 -80 550.5 -15.5Q480 49 480 140Q480 278 626 379Q548 400 480 400H240Q172 400 94 379Q240 278 240 140Q240 49 169.5 -15.5Q99 -80 0 -80Z" fill="currentColor"/>
  </g>
</svg>