<?xml version="1.0" encoding="UTF-8"?>
<svg xmlns="http://www.w3.org/2000/svg" viewBox="0 0 720 720">
  <g transform="translate(0, 560) scale(1, -1)">
    <path d="M80 -160H0Q0 -28 105.5 66.0Q211 160 360.0 160.0Q509 160 614.5 66.0Q720 -28 720 -160H640Q640 -61 558.0 9.5Q476 80 360.0 80.0Q244 80 162.0 9.5Q80 -61 80 -160ZM640 560H720Q720 428 614.5 334.0Q509 240 360.0 240.0Q211 240 105.5 334.0Q0 428 0 560H80Q80 461 162.0 390.5Q244 320 360.0 320.0Q476 320 558.0 390.5Q640 461 640 560Z" fill="currentColor"/>
  </g>
</svg>