<?xml version="1.0" encoding="UTF-8"?>
<svg xmlns="http://www.w3.org/2000/svg" viewBox="0 0 720 720">
  <g transform="translate(0, 560) scale(1, -1)">
    <path d="M362 376Q362 410 243.0 425.0Q124 440 2 440H0V560H559Q530 457 530 434Q530 417 492.5 373.0Q455 329 417.5 280.5Q380 232 380 206Q380 194 408.0 129.5Q436 65 436 12Q436 -13 392.5 -32.0Q349 -51 279.0 -60.5Q209 -70 139.5 -74.0Q70 -78 0 -78V116H4Q57 116 168.5 108.0Q280 100 286 100Q332 100 332 132Q332 196 2 196H0V360H4Q66 360 187.0 353.0Q308 346 314 346Q362 346 362 376Z" fill="currentColor"/>
  </g>
</svg>