<?xml version="1.0" encoding="UTF-8"?>
<svg xmlns="http://www.w3.org/2000/svg" viewBox="0 0 720 720">
  <g transform="translate(0, 560) scale(1, -1)">
    <path d="M230.0 104.5Q190 65 135.0 65.0Q80 65 40.0 104.5Q0 144 0.0 200.0Q0 256 40.0 295.5Q80 335 135.0 335.0Q190 335 230.0 295.5Q270 256 270.0 200.0Q270 144 230.0 104.5ZM167.0 232.0Q154 245 135.0 245.0Q116 245 103.0 232.0Q90 219 90.0 200.0Q90 181 103.0 168.0Q116 155 135.0 155.0Q154 155 167.0 168.0Q180 181 180.0 200.0Q180 219 167.0 232.0ZM680.0 104.5Q640 65 585.0 65.0Q530 65 490.0 104.5Q450 144 450.0 200.0Q450 256 490.0 295.5Q530 335 585.0 335.0Q640 335 680.0 295.5Q720 256 720.0 200.0Q720 144 680.0 104.5ZM617.0 232.0Q604 245 585.0 245.0Q566 245 553.0 232.0Q540 219 540.0 200.0Q540 181 553.0 168.0Q566 155 585.0 155.0Q604 155 617.0 168.0Q630 181 630.0 200.0Q630 219 617.0 232.0Z" fill="currentColor"/>
  </g>
</svg>