<?xml version="1.0" encoding="UTF-8"?>
<svg xmlns="http://www.w3.org/2000/svg" viewBox="0 0 720 720">
  <g transform="translate(0, 560) scale(1, -1)">
    <path d="M13.0 483.0Q0 496 0.0 515.0Q0 534 13.0 547.0Q26 560 45.0 560.0Q64 560 77.0 547.0Q90 534 90.0 515.0Q90 496 77.0 483.0Q64 470 45.0 470.0Q26 470 13.0 483.0ZM103.0 303.0Q90 316 90.0 335.0Q90 354 103.0 367.0Q116 380 135.0 380.0Q154 380 167.0 367.0Q180 354 180.0 335.0Q180 316 167.0 303.0Q154 290 135.0 290.0Q116 290 103.0 303.0ZM13.0 123.0Q0 136 0.0 155.0Q0 174 13.0 187.0Q26 200 45.0 200.0Q64 200 77.0 187.0Q90 174 90.0 155.0Q90 136 77.0 123.0Q64 110 45.0 110.0Q26 110 13.0 123.0ZM103.0 33.0Q90 46 90.0 65.0Q90 84 103.0 97.0Q116 110 135.0 110.0Q154 110 167.0 97.0Q180 84 180.0 65.0Q180 46 167.0 33.0Q154 20 135.0 20.0Q116 20 103.0 33.0ZM13.0 -147.0Q0 -134 0.0 -115.0Q0 -96 13.0 -83.0Q26 -70 45.0 -70.0Q64 -70 77.0 -83.0Q90 -96 90.0 -115.0Q90 -134 77.0 -147.0Q64 -160 45.0 -160.0Q26 -160 13.0 -147.0ZM283.0 -147.0Q270 -134 270.0 -115.0Q270 -96 283.0 -83.0Q296 -70 315.0 -70.0Q334 -70 347.0 -83.0Q360 -96 360.0 -115.0Q360 -134 347.0 -147.0Q334 -160 315.0 -160.0Q296 -160 283.0 -147.0ZM643.0 -147.0Q630 -134 630.0 -115.0Q630 -96 643.0 -83.0Q656 -70 675.0 -70.0Q694 -70 707.0 -83.0Q720 -96 720.0 -115.0Q720 -134 707.0 -147.0Q694 -160 675.0 -160.0Q656 -160 643.0 -147.0ZM643.0 33.0Q630 46 630.0 65.0Q630 84 643.0 97.0Q656 110 675.0 110.0Q694 110 707.0 97.0Q720 84 720.0 65.0Q720 46 707.0 33.0Q694 20 675.0 20.0Q656 20 643.0 33.0ZM373.0 123.0Q360 136 360.0 155.0Q360 174 373.0 187.0Q386 200 405.0 200.0Q424 200 437.0 187.0Q450 174 450.0 155.0Q450 136 437.0 123.0Q424 110 405.0 110.0Q386 110 373.0 123.0ZM553.0 393.0Q540 406 540.0 425.0Q540 444 553.0 457.0Q566 470 585.0 470.0Q604 470 617.0 457.0Q630 444 630.0 425.0Q630 406 617.0 393.0Q604 380 585.0 380.0Q566 380 553.0 393.0ZM373.0 483.0Q360 496 360.0 515.0Q360 534 373.0 547.0Q386 560 405.0 560.0Q424 560 437.0 547.0Q450 534 450.0 515.0Q450 496 437.0 483.0Q424 470 405.0 470.0Q386 470 373.0 483.0Z" fill="currentColor"/>
  </g>
</svg>