<?xml version="1.0" encoding="UTF-8"?>
<svg xmlns="http://www.w3.org/2000/svg" viewBox="0 0 720 720">
  <g transform="translate(0, 560) scale(1, -1)">
    <path d="M114 470Q85 484 85 515Q85 536 99.5 550.5Q114 565 135.0 565.0Q156 565 170.5 550.5Q185 536 185 515Q185 484 156 470Q185 456 185 425Q185 404 170.5 389.5Q156 375 135.0 375.0Q114 375 99.5 389.5Q85 404 85 425Q85 456 114 470ZM260.5 299.5Q246 285 225.0 285.0Q204 285 189.5 299.5Q175 314 175.0 335.0Q175 356 189.5 370.5Q204 385 225.0 385.0Q246 385 260.5 370.5Q275 356 275.0 335.0Q275 314 260.5 299.5ZM45 195Q24 195 9.5 209.5Q-5 224 -5.0 245.0Q-5 266 9.5 280.5Q24 295 45 295Q76 295 90 266Q104 295 135 295Q156 295 170.5 280.5Q185 266 185.0 245.0Q185 224 170.5 209.5Q156 195 135 195Q104 195 90 224Q76 195 45 195ZM9.5 100.5Q24 115 45.0 115.0Q66 115 80.5 100.5Q95 86 95.0 65.0Q95 44 80.5 29.5Q66 15 45.0 15.0Q24 15 9.5 29.5Q-5 44 -5.0 65.0Q-5 86 9.5 100.5ZM99.5 -79.5Q114 -65 135.0 -65.0Q156 -65 170.5 -79.5Q185 -94 185.0 -115.0Q185 -136 170.5 -150.5Q156 -165 135.0 -165.0Q114 -165 99.5 -150.5Q85 -136 85.0 -115.0Q85 -94 99.5 -79.5ZM336 110Q365 96 365 65Q365 44 350.5 29.5Q336 15 315 15Q284 15 270 44Q262 28 246 20Q275 6 275 -25Q275 -46 260.5 -60.5Q246 -75 225.0 -75.0Q204 -75 189.5 -60.5Q175 -46 175 -25Q175 6 204 20Q175 34 175 65Q175 86 189.5 100.5Q204 115 225 115Q256 115 270 86Q278 102 294 110Q265 124 265 155Q265 176 279.5 190.5Q294 205 315.0 205.0Q336 205 350.5 190.5Q365 176 365 155Q365 124 336 110ZM405 285Q384 285 369.5 299.5Q355 314 355.0 335.0Q355 356 369.5 370.5Q384 385 405 385Q436 385 450 356Q458 372 474 380Q445 394 445 425Q445 446 459.5 460.5Q474 475 495.0 475.0Q516 475 530.5 460.5Q545 446 545 425Q545 394 516 380Q545 366 545.0 335.0Q545 304 516 290Q545 276 545 245Q545 224 530.5 209.5Q516 195 495.0 195.0Q474 195 459.5 209.5Q445 224 445 245Q445 276 474 290Q458 298 450 314Q436 285 405 285ZM620.5 479.5Q606 465 585.0 465.0Q564 465 549.5 479.5Q535 494 535.0 515.0Q535 536 549.5 550.5Q564 565 585.0 565.0Q606 565 620.5 550.5Q635 536 635.0 515.0Q635 494 620.5 479.5ZM350.5 479.5Q336 465 315.0 465.0Q294 465 279.5 479.5Q265 494 265.0 515.0Q265 536 279.5 550.5Q294 565 315.0 565.0Q336 565 350.5 550.5Q365 536 365.0 515.0Q365 494 350.5 479.5ZM710.5 299.5Q696 285 675.0 285.0Q654 285 639.5 299.5Q625 314 625.0 335.0Q625 356 639.5 370.5Q654 385 675.0 385.0Q696 385 710.5 370.5Q725 356 725.0 335.0Q725 314 710.5 299.5ZM639.5 190.5Q654 205 675.0 205.0Q696 205 710.5 190.5Q725 176 725.0 155.0Q725 134 710.5 119.5Q696 105 675.0 105.0Q654 105 639.5 119.5Q625 134 625.0 155.0Q625 176 639.5 190.5ZM459.5 100.5Q474 115 495.0 115.0Q516 115 530.5 100.5Q545 86 545.0 65.0Q545 44 530.5 29.5Q516 15 495.0 15.0Q474 15 459.5 29.5Q445 44 445.0 65.0Q445 86 459.5 100.5ZM675 25Q696 25 710.5 10.5Q725 -4 725.0 -25.0Q725 -46 710.5 -60.5Q696 -75 675 -75Q644 -75 630 -46Q622 -62 606 -70Q635 -84 635 -115Q635 -136 620.5 -150.5Q606 -165 585.0 -165.0Q564 -165 549.5 -150.5Q535 -136 535 -115Q535 -84 564 -70Q535 -56 535 -25Q535 -4 549.5 10.5Q564 25 585 25Q616 25 630 -4Q644 25 675 25ZM369.5 -79.5Q384 -65 405.0 -65.0Q426 -65 440.5 -79.5Q455 -94 455.0 -115.0Q455 -136 440.5 -150.5Q426 -165 405.0 -165.0Q384 -165 369.5 -150.5Q355 -136 355.0 -115.0Q355 -94 369.5 -79.5Z" fill="currentColor"/>
  </g>
</svg>