<?xml version="1.0" encoding="UTF-8"?>
<svg xmlns="http://www.w3.org/2000/svg" viewBox="0 0 720 720">
  <g transform="translate(0, 560) scale(1, -1)">
    <path d="M180 -112Q98 -65 49.0 18.5Q0 102 0 200Q0 349 105.5 454.5Q211 560 360.0 560.0Q509 560 614.5 454.5Q720 349 720 200Q720 102 671.0 18.5Q622 -65 540 -112V-160H180ZM167.0 213.0Q180 226 180.0 245.0Q180 264 167.0 277.0Q154 290 135.0 290.0Q116 290 103.0 277.0Q90 264 90.0 245.0Q90 226 103.0 213.0Q116 200 135.0 200.0Q154 200 167.0 213.0Z" fill="currentColor"/>
  </g>
</svg>