<?xml version="1.0" encoding="UTF-8"?>
<svg xmlns="http://www.w3.org/2000/svg" viewBox="0 0 720 720">
  <g transform="translate(0, 560) scale(1, -1)">
    <path d="M500 400Q591 400 655.5 318.0Q720 236 720.0 120.0Q720 4 655.5 -78.0Q591 -160 500 -160Q464 -160 427 -144Q393 -160 360.0 -160.0Q327 -160 293 -144Q256 -160 220 -160Q129 -160 64.5 -78.0Q0 4 0.0 120.0Q0 236 64.5 318.0Q129 400 220 400Q256 400 293 384Q303 389 323 395Q328 429 344.0 461.5Q360 494 377.0 516.0Q394 538 414.0 556.5Q434 575 444.0 582.5Q454 590 458 593L502 527Q493 521 478.0 508.5Q463 496 437.5 462.0Q412 428 404 393Q417 390 427 384Q464 400 500 400Z" fill="currentColor"/>
  </g>
</svg>