<?xml version="1.0" encoding="UTF-8"?>
<svg xmlns="http://www.w3.org/2000/svg" viewBox="0 0 720 720">
  <g transform="translate(0, 560) scale(1, -1)">
    <path d="M720 240V160H233Q220 124 189.5 102.0Q159 80 120 80Q70 80 35.0 115.0Q0 150 0.0 200.0Q0 250 35.0 285.0Q70 320 120 320Q159 320 189.5 298.0Q220 276 233 240ZM92.0 172.0Q104 160 120.0 160.0Q136 160 148.0 172.0Q160 184 160.0 200.0Q160 216 148.0 228.0Q136 240 120.0 240.0Q104 240 92.0 228.0Q80 216 80.0 200.0Q80 184 92.0 172.0Z" fill="currentColor"/>
  </g>
</svg>