<?xml version="1.0" encoding="UTF-8"?>
<svg xmlns="http://www.w3.org/2000/svg" viewBox="0 0 720 720">
  <g transform="translate(0, 560) scale(1, -1)">
    <path d="M365 254Q410 254 436.0 225.0Q462 196 462 146Q462 99 434.0 68.5Q406 38 363.0 38.0Q320 38 291.0 70.0Q262 102 262 150Q262 196 290.5 225.0Q319 254 365 254ZM196 226Q196 -16 362 -16Q433 -16 478.5 31.0Q524 78 524 151Q524 220 482.0 264.5Q440 309 373 309Q300 309 258 253Q259 344 287.5 393.0Q316 442 369 442Q436 442 452 367H514Q505 428 467.5 462.0Q430 496 373 496Q341 496 313.5 485.5Q286 475 257.5 448.0Q229 421 212.5 364.5Q196 308 196 226ZM365 221Q332 221 313.5 202.5Q295 184 295 150Q295 114 314.5 93.0Q334 72 363.0 72.0Q392 72 410.0 92.0Q428 112 428 146Q428 221 365 221ZM429 334Q488 317 523.0 267.0Q558 217 558 151Q558 65 502.5 8.0Q447 -49 362 -49Q307 -49 267.0 -26.5Q227 -4 204.5 35.5Q182 75 172.0 122.0Q162 169 162 226Q162 313 181.5 375.5Q201 438 234.0 469.5Q267 501 301.0 515.0Q335 529 373 529Q442 529 489.0 486.0Q536 443 547 372L552 334ZM425 335 420 360Q410 409 369 409Q315 409 298 327Q332 342 373 342Q401 342 425 335Z" fill="currentColor"/>
  </g>
</svg>