<?xml version="1.0" encoding="UTF-8"?>
<svg xmlns="http://www.w3.org/2000/svg" viewBox="0 0 720 720">
  <g transform="translate(0, 560) scale(1, -1)">
    <path d="M295 108Q295 125 260.5 136.5Q226 148 171.0 152.5Q116 157 76.5 158.5Q37 160 1 160H0V341Q168 312 251 312Q301 312 346.0 337.0Q391 362 423.5 403.0Q456 444 478.0 482.5Q500 521 514 560H599Q582 498 529 424Q500 384 489.0 368.0Q478 352 458.0 315.5Q438 279 430.5 249.0Q423 219 415.5 170.0Q408 121 407 60Q404 -76 0 -76V100Q7 100 116.5 90.0Q226 80 239 80Q295 80 295 108ZM469 560Q456 528 436.5 497.5Q417 467 387.5 435.5Q358 404 315.0 385.0Q272 366 223 366Q99 366 99 416Q100 495 127 560ZM0 388V560H75Q51 498 51 424Q51 388 0 388Z" fill="currentColor"/>
  </g>
</svg>