<?xml version="1.0" encoding="UTF-8"?>
<svg xmlns="http://www.w3.org/2000/svg" viewBox="0 0 720 720">
  <g transform="translate(0, 560) scale(1, -1)">
    <path d="M480 440Q480 457 487 480H0V560H600Q650 560 685.0 525.0Q720 490 720.0 440.0Q720 390 685.0 355.0Q650 320 600.0 320.0Q550 320 515.0 355.0Q480 390 480 440ZM628.0 412.0Q640 424 640.0 440.0Q640 456 628.0 468.0Q616 480 600.0 480.0Q584 480 572.0 468.0Q560 456 560.0 440.0Q560 424 572.0 412.0Q584 400 600.0 400.0Q616 400 628.0 412.0ZM600 -160H0V-80H487Q480 -57 480 -40Q480 10 515.0 45.0Q550 80 600.0 80.0Q650 80 685.0 45.0Q720 10 720.0 -40.0Q720 -90 685.0 -125.0Q650 -160 600 -160ZM572.0 -68.0Q584 -80 600.0 -80.0Q616 -80 628.0 -68.0Q640 -56 640.0 -40.0Q640 -24 628.0 -12.0Q616 0 600.0 0.0Q584 0 572.0 -12.0Q560 -24 560.0 -40.0Q560 -56 572.0 -68.0Z" fill="currentColor"/>
  </g>
</svg>