<?xml version="1.0" encoding="UTF-8"?>
<svg xmlns="http://www.w3.org/2000/svg" viewBox="0 0 720 720">
  <g transform="translate(0, 560) scale(1, -1)">
    <path d="M540 512Q622 465 671.0 381.5Q720 298 720 200Q720 51 614.5 -54.5Q509 -160 360.0 -160.0Q211 -160 105.5 -54.5Q0 51 0 200Q0 298 49.0 381.5Q98 465 180 512V560H540ZM553.0 187.0Q540 174 540.0 155.0Q540 136 553.0 123.0Q566 110 585.0 110.0Q604 110 617.0 123.0Q630 136 630.0 155.0Q630 174 617.0 187.0Q604 200 585.0 200.0Q566 200 553.0 187.0Z" fill="currentColor"/>
  </g>
</svg>