<?xml version="1.0" encoding="UTF-8"?>
<svg xmlns="http://www.w3.org/2000/svg" viewBox="0 0 720 720">
  <g transform="translate(0, 560) scale(1, -1)">
    <path d="M680 160 720 80V40Q720 -4 690.0 -42.0Q660 -80 600.0 -80.0Q540 -80 510.0 -42.0Q480 -4 480 40V280Q480 320 440.0 320.0Q400 320 400 280V40Q400 -4 370.0 -42.0Q340 -80 280.0 -80.0Q220 -80 190.0 -42.0Q160 -4 160 40V320Q133 320 119.5 320.0Q106 320 83.5 321.0Q61 322 49.0 325.0Q37 328 24.0 332.0Q11 336 5.5 343.0Q0 350 0 360Q0 393 52.0 436.5Q104 480 160 480Q182 480 198.5 472.0Q215 464 222.5 452.0Q230 440 234.5 428.0Q239 416 240 408V400V40Q240 0 280.0 0.0Q320 0 320 40V280Q320 324 350.0 362.0Q380 400 440.0 400.0Q500 400 530.0 362.0Q560 324 560 280V40Q560 0 600.0 0.0Q640 0 640 40V80Z" fill="currentColor"/>
  </g>
</svg>