<?xml version="1.0" encoding="UTF-8"?>
<svg xmlns="http://www.w3.org/2000/svg" viewBox="0 0 720 720">
  <g transform="translate(0, 560) scale(1, -1)">
    <path d="M120 400Q120 450 155.0 485.0Q190 520 240 520Q243 520 247.0 519.5Q251 519 253 519Q299 560 360.0 560.0Q421 560 467 519Q469 519 473.0 519.5Q477 520 480 520Q530 520 565.0 485.0Q600 450 600 400Q650 400 685.0 365.0Q720 330 720.0 280.0Q720 230 685.0 195.0Q650 160 600 160Q567 160 539 177L400 61V-160H320V61L181 177Q153 160 120 160Q70 160 35.0 195.0Q0 230 0.0 280.0Q0 330 35.0 365.0Q70 400 120 400ZM233 238 320 165V245Q283 254 253 281Q251 281 247.0 280.5Q243 280 240 280Q240 256 233 238ZM400 245V165L487 238Q480 256 480 280Q477 280 473.0 280.5Q469 281 467 281Q437 254 400 245Z" fill="currentColor"/>
  </g>
</svg>