<?xml version="1.0" encoding="UTF-8"?>
<svg xmlns="http://www.w3.org/2000/svg" viewBox="0 0 720 720">
  <g transform="translate(0, 560) scale(1, -1)">
    <path d="M0 0Q66 0 113.0 41.0Q160 82 160 140Q160 201 116.5 253.5Q73 306 0 343V430Q117 480 240 480Q293 480 342.5 468.5Q392 457 426.0 442.5Q460 428 499.0 401.5Q538 375 556.5 359.0Q575 343 608 313Q637 287 651.0 275.0Q665 263 685.0 251.5Q705 240 720 240V160Q690 160 659.5 175.0Q629 190 610.0 205.0Q591 220 555 253Q517 288 493.5 306.5Q470 325 429.0 350.5Q388 376 341.5 388.0Q295 400 240 400Q172 400 94 379Q240 278 240 140Q240 49 169.5 -15.5Q99 -80 0 -80Z" fill="currentColor"/>
  </g>
</svg>