<?xml version="1.0" encoding="UTF-8"?>
<svg xmlns="http://www.w3.org/2000/svg" viewBox="0 0 720 720">
  <g transform="translate(0, 560) scale(1, -1)">
    <path d="M0 26V320Q84 320 142.0 329.0Q200 338 200 354Q200 386 98 386H0V446Q127 446 163.5 452.0Q200 458 200 478Q200 510 98 510H0V560H366Q336 495 274 424Q274 412 293.0 350.5Q312 289 314 270Q314 200 172 188Q277 148 366 148L484 154Q544 154 579.0 122.0Q614 90 648 26Q642 18 612.5 -30.0Q583 -78 560.5 -101.5Q538 -125 508 -136Q504 -110 464.5 -98.0Q425 -86 365.0 -81.0Q305 -76 240.0 -69.0Q175 -62 108.0 -38.5Q41 -15 0 26Z" fill="currentColor"/>
  </g>
</svg>