<?xml version="1.0" encoding="UTF-8"?>
<svg xmlns="http://www.w3.org/2000/svg" viewBox="0 0 720 720">
  <g transform="translate(0, 560) scale(1, -1)">
    <path d="M99 461Q117 461 132 455Q147 482 174.5 498.5Q202 515 234 515Q241 515 253 513Q290 542 338 542H347Q370 551 396 551Q461 551 502 499Q540 485 560 451Q585 470 616 470Q655 470 683.0 442.5Q711 415 711.0 376.0Q711 337 683.0 309.0Q655 281 616 281Q572 281 544 315Q512 281 464 281Q448 281 431 286Q415 282 407 281Q387 271 376 268Q387 254 387 236Q387 229 386 225Q414 216 414 186Q414 182 413 179Q441 167 441 137Q441 105 412 95Q423 82 423 65Q423 49 413.0 36.5Q403 24 387 21V20Q387 3 376.0 -10.0Q365 -23 349 -25Q351 -29 351 -38Q351 -50 345 -59Q348 -64 350 -71Q366 -74 376.5 -86.5Q387 -99 387 -115Q387 -134 374.0 -147.0Q361 -160 342.0 -160.0Q323 -160 310.0 -147.0Q297 -134 297 -115V-110Q279 -100 279 -79Q279 -74 281 -66Q270 -55 270 -38Q270 -24 278.5 -13.0Q287 -2 301 1Q297 9 297 20Q297 36 307.0 48.5Q317 61 333 64V65Q333 73 336 81Q324 91 324 106Q324 114 328 121Q297 131 297 164Q297 179 305 190Q304 190 304 191L302 192Q299 191 292 191Q272 191 257.5 205.5Q243 220 243 240Q243 268 266 283Q266 284 265.0 284.0Q264 284 263 285Q245 281 234 281Q192 281 161 306Q136 281 99.0 281.0Q62 281 35.5 307.5Q9 334 9.0 371.0Q9 408 35.5 434.5Q62 461 99 461Z" fill="currentColor"/>
  </g>
</svg>