<?xml version="1.0" encoding="UTF-8"?>
<svg xmlns="http://www.w3.org/2000/svg" viewBox="0 0 720 720">
  <g transform="translate(0, 560) scale(1, -1)">
    <path d="M639.5 479.5Q625 494 625.0 515.0Q625 536 639.5 550.5Q654 565 675.0 565.0Q696 565 710.5 550.5Q725 536 725.0 515.0Q725 494 710.5 479.5Q696 465 675.0 465.0Q654 465 639.5 479.5ZM440.5 479.5Q426 465 405.0 465.0Q384 465 369.5 479.5Q355 494 355.0 515.0Q355 536 369.5 550.5Q384 565 405.0 565.0Q426 565 440.5 550.5Q455 536 455.0 515.0Q455 494 440.5 479.5ZM459.5 370.5Q474 385 495.0 385.0Q516 385 530.5 370.5Q545 356 545.0 335.0Q545 314 530.5 299.5Q516 285 495.0 285.0Q474 285 459.5 299.5Q445 314 445.0 335.0Q445 356 459.5 370.5ZM189.5 460.5Q204 475 225.0 475.0Q246 475 260.5 460.5Q275 446 275.0 425.0Q275 404 260.5 389.5Q246 375 225.0 375.0Q204 375 189.5 389.5Q175 404 175.0 425.0Q175 446 189.5 460.5ZM639.5 190.5Q654 205 675.0 205.0Q696 205 710.5 190.5Q725 176 725.0 155.0Q725 134 710.5 119.5Q696 105 675.0 105.0Q654 105 639.5 119.5Q625 134 625.0 155.0Q625 176 639.5 190.5ZM549.5 -79.5Q564 -65 585.0 -65.0Q606 -65 620.5 -79.5Q635 -94 635.0 -115.0Q635 -136 620.5 -150.5Q606 -165 585.0 -165.0Q564 -165 549.5 -150.5Q535 -136 535.0 -115.0Q535 -94 549.5 -79.5ZM369.5 10.5Q384 25 405.0 25.0Q426 25 440.5 10.5Q455 -4 455.0 -25.0Q455 -46 440.5 -60.5Q426 -75 405.0 -75.0Q384 -75 369.5 -60.5Q355 -46 355.0 -25.0Q355 -4 369.5 10.5ZM279.5 190.5Q294 205 315.0 205.0Q336 205 350.5 190.5Q365 176 365.0 155.0Q365 134 350.5 119.5Q336 105 315.0 105.0Q294 105 279.5 119.5Q265 134 265.0 155.0Q265 176 279.5 190.5ZM99.5 100.5Q114 115 135.0 115.0Q156 115 170.5 100.5Q185 86 185.0 65.0Q185 44 170.5 29.5Q156 15 135.0 15.0Q114 15 99.5 29.5Q85 44 85.0 65.0Q85 86 99.5 100.5ZM9.5 280.5Q24 295 45.0 295.0Q66 295 80.5 280.5Q95 266 95.0 245.0Q95 224 80.5 209.5Q66 195 45.0 195.0Q24 195 9.5 209.5Q-5 224 -5.0 245.0Q-5 266 9.5 280.5Z" fill="currentColor"/>
  </g>
</svg>