<?xml version="1.0" encoding="UTF-8"?>
<svg xmlns="http://www.w3.org/2000/svg" viewBox="0 0 720 720">
  <g transform="translate(0, 560) scale(1, -1)">
    <path d="M394 57H235V233H394Q438 233 461.5 209.0Q485 185 485 145Q485 111 464.5 84.0Q444 57 394 57ZM463 372Q463 290 361 290H235V453H361Q463 453 463 372ZM550 146Q550 192 528.0 221.5Q506 251 457 270Q528 304 528 381Q528 431 493.0 470.5Q458 510 377 510H170V0H400Q468 0 509.0 40.0Q550 80 550 146ZM394 90Q452 90 452.0 145.0Q452 200 394 200H268V90ZM430 372Q430 401 415.5 410.5Q401 420 361 420H268V324H361Q402 324 416.0 334.0Q430 344 430 372ZM583 146Q583 67 531.5 17.0Q480 -33 400 -33H137V543H377Q427 543 464.5 527.0Q502 511 522.0 486.0Q542 461 551.5 434.5Q561 408 561 381Q561 317 520 274Q583 230 583 146Z" fill="currentColor"/>
  </g>
</svg>