<?xml version="1.0" encoding="UTF-8"?>
<svg xmlns="http://www.w3.org/2000/svg" viewBox="0 0 720 720">
  <g transform="translate(0, 560) scale(1, -1)">
    <path d="M720 120Q720 92 600 84V80Q600 30 565.0 -5.0Q530 -40 480.0 -40.0Q430 -40 395.0 -5.0Q360 30 360 80Q360 30 325.0 -5.0Q290 -40 240.0 -40.0Q190 -40 155.0 -5.0Q120 30 120 80V84Q0 92 0 120Q0 141 46.5 187.0Q93 233 160 268V280Q160 362 219.0 421.0Q278 480 360.0 480.0Q442 480 501.0 421.0Q560 362 560 280V268Q627 233 673.5 187.0Q720 141 720 120ZM242 302Q303 320 360.0 320.0Q417 320 478 302Q470 344 437.0 372.0Q404 400 360.0 400.0Q316 400 283.0 372.0Q250 344 242 302ZM280 80Q266 80 239.0 80.5Q212 81 200 81V80Q200 64 212.0 52.0Q224 40 240.0 40.0Q256 40 268.0 52.0Q280 64 280 80ZM520 80V81Q508 81 481.0 80.5Q454 80 440 80Q440 64 452.0 52.0Q464 40 480.0 40.0Q496 40 508.0 52.0Q520 64 520 80Z" fill="currentColor"/>
  </g>
</svg>