<?xml version="1.0" encoding="UTF-8"?>
<svg xmlns="http://www.w3.org/2000/svg" viewBox="0 0 720 720">
  <g transform="translate(0, 560) scale(1, -1)">
    <path d="M397 49Q387 49 384.5 40.5Q382 32 381 4Q381 -8 374 -71L430 -112L434 -141L368 -122L360 -141L354 -122L288 -141L291 -112L347 -71L344 -50Q341 -5 341 11L339 28Q338 49 325 49H317Q301 49 270 36L158 -12V9Q158 21 174 32L206 54V88Q206 94 214 94Q224 94 224 88V68L264 96V129Q264 137 272 137Q282 137 282 129V112L338 153V158L341 198Q344 265 360 265Q372 265 375.5 241.5Q379 218 382 153L438 112V129Q438 137 448 137Q452 137 455.0 134.0Q458 131 458 129V96L498 68V88Q498 94 506 94Q515 94 515 88V54L546 32Q562 20 562 9V-12L451 36Q402 49 397 49Z" fill="currentColor"/>
  </g>
</svg>