<?xml version="1.0" encoding="UTF-8"?>
<svg xmlns="http://www.w3.org/2000/svg" viewBox="0 0 720 720">
  <g transform="translate(0, 560) scale(1, -1)">
    <path d="M270 137Q270 163 288.5 181.5Q307 200 333 200H450Q532 200 584 130Q630 69 630 -24Q630 -87 598 -160H188L209 -139Q146 -160 63 -160Q37 -160 18.5 -141.5Q0 -123 0.0 -97.0Q0 -71 18.5 -52.5Q37 -34 63 -34Q165 -34 217.5 5.5Q270 45 270 137ZM462.0 469.0Q504 432 504.0 380.0Q504 328 462.0 291.0Q420 254 360.0 254.0Q300 254 258.0 291.0Q216 328 216.0 380.0Q216 432 258.0 469.0Q300 506 360.0 506.0Q420 506 462.0 469.0Z" fill="currentColor"/>
  </g>
</svg>