<?xml version="1.0" encoding="UTF-8"?>
<svg xmlns="http://www.w3.org/2000/svg" viewBox="0 0 720 720">
  <g transform="translate(0, 560) scale(1, -1)">
    <path d="M458 330Q458 284 429.0 255.0Q400 226 355.0 226.0Q310 226 284.0 255.0Q258 284 258 334Q258 381 286.0 411.5Q314 442 357.0 442.0Q400 442 429.0 410.0Q458 378 458 330ZM525 254Q525 496 358 496Q287 496 241.0 449.0Q195 402 195 329Q195 260 238.0 216.0Q281 172 348.0 172.0Q415 172 461 227Q460 136 432.0 87.0Q404 38 351 38Q283 38 267 113H206Q215 52 252.0 18.0Q289 -16 346 -16Q378 -16 405.5 -5.5Q433 5 462.0 32.0Q491 59 508.0 115.5Q525 172 525 254ZM291 334Q291 259 355 259Q387 259 406.0 278.0Q425 297 425 330Q425 366 405.5 387.5Q386 409 357.0 409.0Q328 409 309.5 389.0Q291 369 291 334ZM294 146 300 120Q309 72 351 72Q404 72 421 154Q385 138 348 138Q328 138 294 146ZM291 146Q232 164 197.0 214.0Q162 264 162 329Q162 415 217.5 472.0Q273 529 358 529Q413 529 453.0 507.0Q493 485 515.0 445.5Q537 406 547.5 358.5Q558 311 558 254Q558 184 544.5 129.5Q531 75 510.0 42.0Q489 9 460.0 -12.0Q431 -33 403.5 -41.0Q376 -49 346 -49Q277 -49 230.5 -6.0Q184 37 173 109L167 146Z" fill="currentColor"/>
  </g>
</svg>