<?xml version="1.0" encoding="UTF-8"?>
<svg xmlns="http://www.w3.org/2000/svg" viewBox="0 0 720 720">
  <g transform="translate(0, 560) scale(1, -1)">
    <path d="M192 253Q192 347 241.5 404.0Q291 461 372 461Q431 461 470.0 433.0Q509 405 519 356H586Q573 434 516.5 476.5Q460 519 372 519Q303 519 252.0 492.0Q201 465 175.5 422.0Q150 379 138.5 336.0Q127 293 127 250Q127 132 192.0 58.0Q257 -16 361 -16Q461 -16 535 65L551 -3H593V270H380V212H535V198Q535 130 490.0 85.5Q445 41 375 41Q333 41 300.0 55.5Q267 70 247.5 92.0Q228 114 215.0 143.0Q202 172 197.0 199.0Q192 226 192 253ZM225 253Q225 228 229.0 204.5Q233 181 244.0 157.0Q255 133 271.0 115.0Q287 97 314.0 85.5Q341 74 375 74Q427 74 461.0 103.0Q495 132 501 179H347V302H626V-36H525L516 2Q450 -49 361 -49Q243 -49 168.5 35.5Q94 120 94 250Q94 286 101.0 323.5Q108 361 128.0 403.0Q148 445 177.5 477.5Q207 510 257.5 531.0Q308 552 372 552Q470 552 536.0 501.0Q602 450 618 361L625 323H493L487 349Q479 386 449.5 407.0Q420 428 372 428Q305 428 265.0 382.0Q225 336 225 253Z" fill="currentColor"/>
  </g>
</svg>