<?xml version="1.0" encoding="UTF-8"?>
<svg xmlns="http://www.w3.org/2000/svg" viewBox="0 0 720 720">
  <g transform="translate(0, 560) scale(1, -1)">
    <path d="M433 -136 405 -160 360 20 315 -160Q304 -151 286.0 -135.0Q268 -119 221.5 -73.0Q175 -27 139.0 15.5Q103 58 74.0 110.0Q45 162 45.0 200.0Q45 238 77.5 289.0Q110 340 156.0 385.5Q202 431 248.5 471.5Q295 512 328 536L360 560Q373 551 394.0 535.0Q415 519 469.5 473.0Q524 427 565.5 384.5Q607 342 641.0 290.0Q675 238 675.0 200.0Q675 162 647.0 111.0Q619 60 579.5 14.5Q540 -31 500.5 -71.5Q461 -112 433 -136ZM238.0 303.0Q251 290 270.0 290.0Q289 290 302.0 303.0Q315 316 315.0 335.0Q315 354 302.0 367.0Q289 380 270.0 380.0Q251 380 238.0 367.0Q225 354 225.0 335.0Q225 316 238.0 303.0ZM328.0 123.0Q341 110 360.0 110.0Q379 110 392.0 123.0Q405 136 405.0 155.0Q405 174 392.0 187.0Q379 200 360.0 200.0Q341 200 328.0 187.0Q315 174 315.0 155.0Q315 136 328.0 123.0ZM418.0 303.0Q431 290 450.0 290.0Q469 290 482.0 303.0Q495 316 495.0 335.0Q495 354 482.0 367.0Q469 380 450.0 380.0Q431 380 418.0 367.0Q405 354 405.0 335.0Q405 316 418.0 303.0Z" fill="currentColor"/>
  </g>
</svg>