<?xml version="1.0" encoding="UTF-8"?>
<svg xmlns="http://www.w3.org/2000/svg" viewBox="0 0 720 720">
  <g transform="translate(0, 560) scale(1, -1)">
    <path d="M92.0 198.0Q104 186 120.0 186.0Q136 186 148.0 198.0Q160 210 160.0 226.0Q160 242 148.0 254.0Q136 266 120.0 266.0Q104 266 92.0 254.0Q80 242 80.0 226.0Q80 210 92.0 198.0ZM120 106Q70 106 35.0 141.0Q0 176 0.0 226.0Q0 276 35.0 311.0Q70 346 120 346Q158 346 189.0 323.5Q220 301 233 266H280V466H360V266H423L612 454L668 398L497 226L668 54L612 -2L423 186H360V-14H280V186H233Q220 151 189.0 128.5Q158 106 120 106Z" fill="currentColor"/>
  </g>
</svg>