<?xml version="1.0" encoding="UTF-8"?>
<svg xmlns="http://www.w3.org/2000/svg" viewBox="0 0 720 720">
  <g transform="translate(0, 560) scale(1, -1)">
    <path d="M241 372Q213 372 193.0 354.0Q173 336 173 310Q173 302 179 290Q206 290 225.5 306.5Q245 323 245 348Q245 352 241 372ZM720 -76H469Q471 -4 493.5 54.5Q516 113 547.0 153.5Q578 194 609.5 231.0Q641 268 666.0 314.0Q691 360 697 412Q634 388 586.0 350.5Q538 313 513.0 277.5Q488 242 469.0 209.5Q450 177 435.0 157.5Q420 138 403 138Q353 138 353 200Q333 174 307 174L267 184Q205 200 175.5 225.0Q146 250 119 308Q131 377 216 560H720Z" fill="currentColor"/>
  </g>
</svg>