<?xml version="1.0" encoding="UTF-8"?>
<svg xmlns="http://www.w3.org/2000/svg" viewBox="0 0 720 720">
  <g transform="translate(0, 560) scale(1, -1)">
    <path d="M585 290Q571 290 559.0 294.5Q547 299 539.5 304.0Q532 309 523.5 320.5Q515 332 512.0 337.0Q509 342 502.0 356.0Q495 370 494 372Q469 339 448 276Q450 266 450 245Q450 219 441 188Q442 185 455.0 169.5Q468 154 495.5 128.0Q523 102 555.5 78.5Q588 55 632.5 37.5Q677 20 720 20V-70Q662 -70 605.5 -49.5Q549 -29 505.0 4.0Q461 37 433.0 63.0Q405 89 384 115Q371 110 360.0 110.0Q349 110 336 115Q315 89 287.0 63.0Q259 37 215.0 4.0Q171 -29 114.5 -49.5Q58 -70 0 -70V20Q43 20 88.0 37.5Q133 55 164.5 78.0Q196 101 224.0 128.0Q252 155 264.0 169.0Q276 183 279 188Q270 219 270 245Q270 266 272 276Q251 339 226 372Q225 370 218.0 356.0Q211 342 208.0 337.0Q205 332 196.5 320.5Q188 309 180.5 304.0Q173 299 161.0 294.5Q149 290 135 290Q0 290 0 560H90Q90 501 97.0 459.5Q104 418 112.5 402.0Q121 386 130 381Q133 386 140 400Q150 419 157.0 431.0Q164 443 183.0 456.5Q202 470 225 470Q284 470 330 372Q344 380 360.0 380.0Q376 380 390 372Q436 470 495 470Q518 470 537.0 456.5Q556 443 563.0 431.0Q570 419 580 400Q587 386 590 381Q599 386 607.5 402.0Q616 418 623.0 459.5Q630 501 630 560H720Q720 290 585 290Z" fill="currentColor"/>
  </g>
</svg>