<?xml version="1.0" encoding="UTF-8"?>
<svg xmlns="http://www.w3.org/2000/svg" viewBox="0 0 720 720">
  <g transform="translate(0, 560) scale(1, -1)">
    <path d="M0 160V240H87Q100 275 131.0 297.5Q162 320 200 320Q250 320 285.0 285.0Q320 250 320 200V560L720 200L320 -160V200Q320 150 285.0 115.0Q250 80 200 80Q162 80 131.0 102.5Q100 125 87 160ZM228.0 228.0Q216 240 200.0 240.0Q184 240 172.0 228.0Q160 216 160.0 200.0Q160 184 172.0 172.0Q184 160 200.0 160.0Q216 160 228.0 172.0Q240 184 240.0 200.0Q240 216 228.0 228.0ZM400 380V20L600 200Z" fill="currentColor"/>
  </g>
</svg>