<?xml version="1.0" encoding="UTF-8"?>
<svg xmlns="http://www.w3.org/2000/svg" viewBox="0 0 720 720">
  <g transform="translate(0, 560) scale(1, -1)">
    <path d="M365 41Q286 41 253.5 76.0Q221 111 221 159V162H159Q160 110 178.5 73.5Q197 37 228.5 18.5Q260 0 292.0 -8.0Q324 -16 361 -16Q418 -16 459.5 -1.0Q501 14 521.5 39.0Q542 64 551.5 89.0Q561 114 561 140Q561 187 532.5 220.5Q504 254 452 268L324 302Q278 315 259.0 332.0Q240 349 240 378Q240 417 271.0 440.5Q302 464 354 464Q414 464 447.0 437.0Q480 410 481 360H543Q542 435 493.0 477.0Q444 519 356 519Q272 519 223.5 478.5Q175 438 175 369Q175 277 275 250L402 216Q495 191 495 134Q495 98 467.0 69.5Q439 41 365 41ZM365 74Q398 74 419.5 80.0Q441 86 449.5 97.0Q458 108 460.0 115.5Q462 123 462 134Q462 150 448.5 161.5Q435 173 393 184L267 218Q208 233 175.0 272.5Q142 312 142 369Q142 453 201.5 502.5Q261 552 356 552Q454 552 514.5 501.5Q575 451 576 361V327L449 328L448 360Q448 395 426.5 413.0Q405 431 354 431Q313 431 293.0 416.0Q273 401 273 378Q273 367 275.5 361.5Q278 356 291.0 349.0Q304 342 333 334L461 300Q522 283 558.0 240.5Q594 198 594 140Q594 108 582.0 77.0Q570 46 544.5 16.5Q519 -13 471.5 -31.0Q424 -49 361 -49Q322 -49 284.5 -39.5Q247 -30 210.0 -8.0Q173 14 150.0 58.0Q127 102 126 162V195H254V159Q254 74 365 74Z" fill="currentColor"/>
  </g>
</svg>