<?xml version="1.0" encoding="UTF-8"?>
<svg xmlns="http://www.w3.org/2000/svg" viewBox="0 0 720 720">
  <g transform="translate(0, 560) scale(1, -1)">
    <path d="M270 65Q270 27 283.0 -0.5Q296 -28 317.0 -41.5Q338 -55 355.5 -61.0Q373 -67 391 -69Q360 -15 360 65Q360 165 423 239Q270 158 270 65ZM450 65Q450 30 458.0 3.5Q466 -23 476.5 -36.5Q487 -50 501.5 -58.0Q516 -66 524.0 -68.0Q532 -70 540 -70H563Q540 -17 540 65Q540 193 619 254Q618 254 617.0 255.0Q616 256 615 256Q609 250 596 246Q450 197 450 65ZM720 305V200Q630 188 630 65Q630 18 638.5 -13.5Q647 -45 657.0 -56.5Q667 -68 677 -70H720V-160H373L372 -159Q372 -158 372 -157Q339 -152 308.0 -138.5Q277 -125 246.5 -100.5Q216 -76 198.0 -33.0Q180 10 180 65Q180 119 210.5 169.5Q241 220 280.5 252.5Q320 285 373.5 313.5Q427 342 458.0 354.0Q489 366 517 375Q623 470 720 470V380Q683 380 630 348Q667 333 720 305Z" fill="currentColor"/>
  </g>
</svg>