<?xml version="1.0" encoding="UTF-8"?>
<svg xmlns="http://www.w3.org/2000/svg" viewBox="0 0 720 720">
  <g transform="translate(0, 560) scale(1, -1)">
    <path d="M459 242Q459 136 435.0 85.5Q411 35 359 35Q261 35 261 239Q261 442 360.0 442.0Q459 442 459 242ZM198 240Q198 115 239.5 49.5Q281 -16 360.0 -16.0Q439 -16 480.5 49.0Q522 114 522 236Q522 496 360 496Q330 496 305.0 486.0Q280 476 254.0 450.5Q228 425 213.0 371.0Q198 317 198 240ZM294 239Q294 68 359 68Q426 68 426 242Q426 409 360.0 409.0Q294 409 294 239ZM165 240Q165 322 182.5 381.5Q200 441 230.0 471.5Q260 502 292.0 515.5Q324 529 360 529Q415 529 455.0 504.0Q495 479 516.0 435.5Q537 392 546.0 343.0Q555 294 555 236Q555 105 505.5 28.0Q456 -49 360 -49Q263 -49 214.0 28.5Q165 106 165 240Z" fill="currentColor"/>
  </g>
</svg>