<?xml version="1.0" encoding="UTF-8"?>
<svg xmlns="http://www.w3.org/2000/svg" viewBox="0 0 720 720">
  <g transform="translate(0, 560) scale(1, -1)">
    <path d="M675 200Q675 170 654.0 146.5Q633 123 607.5 110.0Q582 97 561.0 73.5Q540 50 540 20Q540 -20 574.0 -65.0Q608 -110 642 -135L675 -160Q669 -160 659.5 -159.5Q650 -159 621.0 -155.5Q592 -152 565.0 -146.0Q538 -140 503.5 -126.5Q469 -113 442.0 -94.5Q415 -76 392.0 -46.5Q369 -17 360 20Q347 -30 310.0 -67.5Q273 -105 229.0 -121.5Q185 -138 143.0 -148.0Q101 -158 73 -159L45 -160Q50 -156 59.5 -149.5Q69 -143 92.0 -122.5Q115 -102 133.0 -82.0Q151 -62 165.5 -33.5Q180 -5 180 20Q180 50 159.0 73.5Q138 97 112.5 110.0Q87 123 66.0 146.5Q45 170 45 200Q45 238 77.5 289.0Q110 340 156.0 385.5Q202 431 248.5 471.5Q295 512 328 536L360 560Q373 551 394.0 535.0Q415 519 469.5 473.0Q524 427 565.5 384.5Q607 342 641.0 290.0Q675 238 675 200ZM238.0 303.0Q251 290 270.0 290.0Q289 290 302.0 303.0Q315 316 315.0 335.0Q315 354 302.0 367.0Q289 380 270.0 380.0Q251 380 238.0 367.0Q225 354 225.0 335.0Q225 316 238.0 303.0ZM328.0 123.0Q341 110 360.0 110.0Q379 110 392.0 123.0Q405 136 405.0 155.0Q405 174 392.0 187.0Q379 200 360.0 200.0Q341 200 328.0 187.0Q315 174 315.0 155.0Q315 136 328.0 123.0ZM418.0 303.0Q431 290 450.0 290.0Q469 290 482.0 303.0Q495 316 495.0 335.0Q495 354 482.0 367.0Q469 380 450.0 380.0Q431 380 418.0 367.0Q405 354 405.0 335.0Q405 316 418.0 303.0Z" fill="currentColor"/>
  </g>
</svg>