<?xml version="1.0" encoding="UTF-8"?>
<svg xmlns="http://www.w3.org/2000/svg" viewBox="0 0 720 720">
  <g transform="translate(0, 560) scale(1, -1)">
    <path d="M628.0 254.0Q616 266 600.0 266.0Q584 266 572.0 254.0Q560 242 560.0 226.0Q560 210 572.0 198.0Q584 186 600.0 186.0Q616 186 628.0 198.0Q640 210 640.0 226.0Q640 242 628.0 254.0ZM600 346Q650 346 685.0 311.0Q720 276 720.0 226.0Q720 176 685.0 141.0Q650 106 600 106Q562 106 531.0 128.5Q500 151 487 186H440V-14H360V186H297L108 -2L52 54L223 226L52 398L108 454L297 266H360V466H440V266H487Q500 301 531.0 323.5Q562 346 600 346Z" fill="currentColor"/>
  </g>
</svg>