<?xml version="1.0" encoding="UTF-8"?>
<svg xmlns="http://www.w3.org/2000/svg" viewBox="0 0 720 720">
  <g transform="translate(0, 560) scale(1, -1)">
    <path d="M664 178 675 155Q665 150 644.0 142.5Q623 135 541.5 122.5Q460 110 360.0 110.0Q260 110 181.0 121.0Q102 132 74 144L45 155Q49 164 56.0 179.0Q63 194 91.0 233.0Q119 272 152.0 301.5Q185 331 241.0 355.5Q297 380 360.0 380.0Q423 380 478.5 357.0Q534 334 568.5 301.0Q603 268 628.5 234.5Q654 201 664 178ZM315 200V290H225V200ZM495 200V290H405V200Z" fill="currentColor"/>
  </g>
</svg>