<?xml version="1.0" encoding="UTF-8"?>
<svg xmlns="http://www.w3.org/2000/svg" viewBox="0 0 720 720">
  <g transform="translate(0, 560) scale(1, -1)">
    <path d="M223 57V453H343Q497 453 497 255Q497 158 458.0 107.5Q419 57 343 57ZM158 0H354Q451 0 506.5 68.5Q562 137 562.0 256.0Q562 375 506.5 442.5Q451 510 354 510H158ZM256 90H343Q404 90 434.0 129.0Q464 168 464 255Q464 343 434.0 381.5Q404 420 343 420H256ZM125 -33V543H354Q466 543 530.5 464.0Q595 385 595 256Q595 126 530.5 46.5Q466 -33 354 -33Z" fill="currentColor"/>
  </g>
</svg>