<?xml version="1.0" encoding="UTF-8"?>
<svg xmlns="http://www.w3.org/2000/svg" viewBox="0 0 720 720">
  <g transform="translate(0, 560) scale(1, -1)">
    <path d="M585 470Q621 470 648.0 445.5Q675 421 688.0 388.5Q701 356 709.0 313.5Q717 271 718.5 246.0Q720 221 720 200H630Q630 266 615.5 322.0Q601 378 586 380Q578 377 549 348Q531 330 520.0 320.0Q509 310 489.0 300.0Q469 290 450 290H445Q444 288 443.0 283.5Q442 279 441 277Q468 263 494.5 245.0Q521 227 554.5 198.5Q588 170 609.0 135.0Q630 100 630 65Q630 27 611.0 -1.0Q592 -29 562.5 -43.0Q533 -57 504.5 -63.5Q476 -70 450 -70V20Q453 20 460.0 20.5Q467 21 482.0 24.0Q497 27 509.0 31.0Q521 35 530.5 44.0Q540 53 540 65Q540 92 490.5 134.5Q441 177 386 206Q374 200 360.0 200.0Q346 200 334 206Q279 178 229.5 135.5Q180 93 180 65Q180 53 189.5 44.0Q199 35 211.0 31.0Q223 27 238.0 24.0Q253 21 260.0 20.5Q267 20 270 20V-70Q244 -70 215.5 -63.5Q187 -57 157.5 -43.0Q128 -29 109.0 -1.0Q90 27 90 65Q90 100 111.0 135.0Q132 170 165.5 198.5Q199 227 225.5 245.0Q252 263 279 277Q278 279 277.0 283.5Q276 288 275 290H270Q251 290 231.0 300.0Q211 310 200.0 320.0Q189 330 171 348Q142 377 134 380Q119 378 104.5 322.0Q90 266 90 200H0Q0 221 1.5 246.0Q3 271 11.0 313.5Q19 356 32.0 388.5Q45 421 72.0 445.5Q99 470 135 470Q154 470 174.0 460.0Q194 450 205.0 440.0Q216 430 234 412Q263 383 271 380H275Q284 419 307.5 444.5Q331 470 360.0 470.0Q389 470 412.5 444.5Q436 419 445 380H449Q457 383 486 412Q504 430 515.0 440.0Q526 450 546.0 460.0Q566 470 585 470Z" fill="currentColor"/>
  </g>
</svg>