<?xml version="1.0" encoding="UTF-8"?>
<svg xmlns="http://www.w3.org/2000/svg" viewBox="0 0 720 720">
  <g transform="translate(0, 560) scale(1, -1)">
    <path d="M270 137V102H450V137ZM360 462Q453 462 522.0 395.0Q591 328 591.0 231.0Q591 134 522.5 67.0Q454 0 360 0Q265 0 197.0 67.0Q129 134 129 231Q129 324 196.0 393.0Q263 462 360 462ZM284 276Q297 276 305.5 284.5Q314 293 314.0 306.0Q314 319 305.0 327.5Q296 336 284.0 336.0Q272 336 263.5 327.0Q255 318 255 306Q255 293 263.5 284.5Q272 276 284 276ZM435 336Q423 336 414.0 326.5Q405 317 405 306Q405 294 414.0 285.0Q423 276 435.0 276.0Q447 276 456.0 285.0Q465 294 465.0 306.0Q465 318 455.5 327.0Q446 336 435 336Z" fill="currentColor"/>
  </g>
</svg>