<?xml version="1.0" encoding="UTF-8"?>
<svg xmlns="http://www.w3.org/2000/svg" viewBox="0 0 720 720">
  <g transform="translate(0, 560) scale(1, -1)">
    <path d="M560 240Q582 240 607.0 256.5Q632 273 651.0 296.5Q670 320 686.5 343.5Q703 367 712 384L720 400V0Q717 7 711.0 17.5Q705 28 687.0 55.5Q669 83 651.0 104.0Q633 125 607.5 142.5Q582 160 560 160Q534 160 498.5 135.0Q463 110 430.5 80.0Q398 50 346.0 25.0Q294 0 240 0Q195 0 154.0 16.5Q113 33 86.0 56.5Q59 80 38.5 103.5Q18 127 9 144L0 160L240 180L0 240Q3 247 9.5 257.5Q16 268 38.5 295.5Q61 323 86.5 344.0Q112 365 153.5 382.5Q195 400 240 400Q294 400 346.0 375.0Q398 350 430.5 320.0Q463 290 498.5 265.0Q534 240 560 240ZM172.0 252.0Q184 240 200.0 240.0Q216 240 228.0 252.0Q240 264 240.0 280.0Q240 296 228.0 308.0Q216 320 200.0 320.0Q184 320 172.0 308.0Q160 296 160.0 280.0Q160 264 172.0 252.0Z" fill="currentColor"/>
  </g>
</svg>