<?xml version="1.0" encoding="UTF-8"?>
<svg xmlns="http://www.w3.org/2000/svg" viewBox="0 0 720 720">
  <g transform="translate(0, 560) scale(1, -1)">
    <path d="M160 240Q186 240 221.5 265.0Q257 290 289.5 320.0Q322 350 374.0 375.0Q426 400 480 400Q525 400 566.0 383.5Q607 367 634.0 343.5Q661 320 681.5 296.5Q702 273 711 256L720 240L480 180L720 160Q717 153 710.5 142.5Q704 132 681.5 104.5Q659 77 633.5 56.0Q608 35 566.5 17.5Q525 0 480 0Q426 0 374.0 25.0Q322 50 289.5 80.0Q257 110 221.5 135.0Q186 160 160 160Q138 160 113.0 143.5Q88 127 69.0 103.5Q50 80 33.5 56.5Q17 33 8 16L0 0V400Q3 393 9.0 382.5Q15 372 33.0 344.5Q51 317 69.0 296.0Q87 275 112.5 257.5Q138 240 160 240ZM492.0 252.0Q504 240 520.0 240.0Q536 240 548.0 252.0Q560 264 560.0 280.0Q560 296 548.0 308.0Q536 320 520.0 320.0Q504 320 492.0 308.0Q480 296 480.0 280.0Q480 264 492.0 252.0Z" fill="currentColor"/>
  </g>
</svg>