<?xml version="1.0" encoding="UTF-8"?>
<svg xmlns="http://www.w3.org/2000/svg" viewBox="0 0 720 720">
  <g transform="translate(0, 560) scale(1, -1)">
    <path d="M630 20Q602 20 580 35L310 215Q270 242 270 290V369L180 324V110Q180 72 154.0 46.0Q128 20 90.0 20.0Q52 20 26.0 46.0Q0 72 0 110V380Q0 405 13.5 427.0Q27 449 50 460L249 560H448Q450 548 450 542V526Q473 546 486 560H664Q646 528 618 493Q573 439 540 414Q521 398 495.0 398.0Q469 398 450 414V338L680 185Q720 157 720 109Q720 71 693.0 45.5Q666 20 630 20Z" fill="currentColor"/>
  </g>
</svg>