<?xml version="1.0" encoding="UTF-8"?>
<svg xmlns="http://www.w3.org/2000/svg" viewBox="0 0 720 720">
  <g transform="translate(0, 560) scale(1, -1)">
    <path d="M180 -70V54Q143 99 105 132Q90 87 90.0 20.0Q90 -47 103 -70ZM0 305Q65 270 115 237Q224 164 321 9Q360 68 360 110Q359 119 345.5 138.5Q332 158 295.0 193.5Q258 229 206 268Q135 320 77.0 350.0Q19 380 0 380V470Q82 470 263 337Q450 196 450 110Q450 15 360 -88V-160H0V-70H9Q0 -36 0 20Q0 122 29 186Q25 188 16.5 193.0Q8 198 4 200H0ZM442 560 495 507 548 560H720V-160H540V-115Q540 -96 553.0 -83.0Q566 -70 585.0 -70.0Q604 -70 617.0 -83.0Q630 -96 630 -115V388L495 253L188 560Z" fill="currentColor"/>
  </g>
</svg>