<?xml version="1.0" encoding="UTF-8"?>
<svg xmlns="http://www.w3.org/2000/svg" viewBox="0 0 720 720">
  <g transform="translate(0, 560) scale(1, -1)">
    <path d="M271 21Q214 33 171 61Q146 11 90 11Q52 11 26.0 37.5Q0 64 0.0 101.0Q0 138 26.0 164.5Q52 191 90 191Q90 247 136 293Q90 320 90 375Q90 414 116.5 442.0Q143 470 180.0 470.0Q217 470 243.5 442.0Q270 414 270 375Q270 366 269 361Q310 371 360.0 371.0Q410 371 451 361Q451 362 450.5 366.0Q450 370 450 371Q450 408 476.0 434.5Q502 461 540.0 461.0Q578 461 604.0 434.5Q630 408 630 371Q630 319 584 293Q630 247 630 191Q668 191 694.0 164.5Q720 138 720.0 101.0Q720 64 694.0 37.5Q668 11 630 11Q574 11 549 61Q506 33 449 21Q449 20 449.5 16.0Q450 12 450 11Q450 -26 424.0 -52.5Q398 -79 360.0 -79.0Q322 -79 296.0 -52.5Q270 -26 270 11Q270 12 270.5 16.0Q271 20 271 21ZM487.0 129.5Q540 158 540.0 191.0Q540 224 487.0 252.5Q434 281 360.0 281.0Q286 281 233.0 252.5Q180 224 180.0 191.0Q180 158 233.0 129.5Q286 101 360.0 101.0Q434 101 487.0 129.5Z" fill="currentColor"/>
  </g>
</svg>