<?xml version="1.0" encoding="UTF-8"?>
<svg xmlns="http://www.w3.org/2000/svg" viewBox="0 0 720 720">
  <g transform="translate(0, 560) scale(1, -1)">
    <path d="M424 144 392 104 443 61Q400 41 359 41Q278 41 228.5 98.5Q179 156 179 251Q179 345 229.0 403.0Q279 461 360.0 461.0Q441 461 491.0 403.5Q541 346 541 252Q541 154 486 92ZM600 -1 534 53Q606 132 606 253Q606 372 538.0 445.5Q470 519 360.0 519.0Q250 519 182.0 445.0Q114 371 114.0 251.0Q114 131 182.0 57.5Q250 -16 360 -16Q432 -16 494 20L567 -41ZM419 190 480 140Q508 186 508 252Q508 334 467.5 381.0Q427 428 360.0 428.0Q293 428 252.5 381.0Q212 334 212.0 251.0Q212 168 252.0 121.0Q292 74 359 74Q362 74 367.5 74.5Q373 75 375 75L345 100ZM646 4 572 -88 490 -20Q429 -49 360 -49Q236 -49 158.5 35.0Q81 119 81.0 251.0Q81 383 158.5 467.5Q236 552 360.0 552.0Q484 552 561.5 468.0Q639 384 639 253Q639 138 581 58Z" fill="currentColor"/>
  </g>
</svg>