<?xml version="1.0" encoding="UTF-8"?>
<svg xmlns="http://www.w3.org/2000/svg" viewBox="0 0 720 720">
  <g transform="translate(0, 560) scale(1, -1)">
    <path d="M463.0 393.0Q476 380 495.0 380.0Q514 380 527.0 393.0Q540 406 540.0 425.0Q540 444 527.0 457.0Q514 470 495.0 470.0Q476 470 463.0 457.0Q450 444 450.0 425.0Q450 406 463.0 393.0ZM193.0 393.0Q206 380 225.0 380.0Q244 380 257.0 393.0Q270 406 270.0 425.0Q270 444 257.0 457.0Q244 470 225.0 470.0Q206 470 193.0 457.0Q180 444 180.0 425.0Q180 406 193.0 393.0ZM405 560Q468 560 529.5 527.0Q591 494 631.0 449.0Q671 404 695.5 360.0Q720 316 720 290Q720 239 680.0 196.5Q640 154 554 131L712 -89L638 -141L456 114Q417 110 360.0 110.0Q303 110 264 114L82 -141L8 -89L166 131Q80 154 40.0 196.5Q0 239 0 290Q0 325 24.5 370.5Q49 416 89.5 458.5Q130 501 190.5 530.5Q251 560 315 560ZM450 200V290H270V200Z" fill="currentColor"/>
  </g>
</svg>