<?xml version="1.0" encoding="UTF-8"?>
<svg xmlns="http://www.w3.org/2000/svg" viewBox="0 0 720 720">
  <g transform="translate(0, 560) scale(1, -1)">
    <path d="M170.5 190.5Q185 176 185.0 155.0Q185 134 170.5 119.5Q156 105 135.0 105.0Q114 105 99.5 119.5Q85 134 85.0 155.0Q85 176 99.5 190.5Q114 205 135.0 205.0Q156 205 170.5 190.5ZM350.5 389.5Q336 375 315.0 375.0Q294 375 279.5 389.5Q265 404 265.0 425.0Q265 446 279.5 460.5Q294 475 315.0 475.0Q336 475 350.5 460.5Q365 446 365.0 425.0Q365 404 350.5 389.5ZM549.5 280.5Q564 295 585.0 295.0Q606 295 620.5 280.5Q635 266 635.0 245.0Q635 224 620.5 209.5Q606 195 585.0 195.0Q564 195 549.5 209.5Q535 224 535.0 245.0Q535 266 549.5 280.5ZM516 110Q545 96 545.0 65.0Q545 34 516 20Q545 6 545 -25Q545 -46 530.5 -60.5Q516 -75 495.0 -75.0Q474 -75 459.5 -60.5Q445 -46 445 -25Q445 6 474 20Q445 34 445.0 65.0Q445 96 474 110Q458 118 450 134Q436 105 405.0 105.0Q374 105 360 134Q352 118 336 110Q365 96 365 65Q365 44 350.5 29.5Q336 15 315 15Q284 15 270 44Q256 15 225 15Q204 15 189.5 29.5Q175 44 175.0 65.0Q175 86 189.5 100.5Q204 115 225 115Q256 115 270 86Q278 102 294 110Q265 124 265.0 155.0Q265 186 294 200Q278 208 270 224Q256 195 225 195Q204 195 189.5 209.5Q175 224 175 245Q175 276 204 290Q175 304 175 335Q175 356 189.5 370.5Q204 385 225.0 385.0Q246 385 260.5 370.5Q275 356 275 335Q275 304 246 290Q262 282 270 266Q284 295 315.0 295.0Q346 295 360 266Q368 282 384 290Q355 304 355 335Q355 356 369.5 370.5Q384 385 405 385Q436 385 450 356Q464 385 495 385Q516 385 530.5 370.5Q545 356 545.0 335.0Q545 314 530.5 299.5Q516 285 495 285Q464 285 450 314Q442 298 426 290Q455 276 455.0 245.0Q455 214 426 200Q442 192 450 176Q464 205 495 205Q516 205 530.5 190.5Q545 176 545 155Q545 124 516 110ZM360 176Q368 192 384 200Q368 208 360 224Q352 208 336 200Q352 192 360 176Z" fill="currentColor"/>
  </g>
</svg>