<?xml version="1.0" encoding="UTF-8"?>
<svg xmlns="http://www.w3.org/2000/svg" viewBox="0 0 720 720">
  <g transform="translate(0, 560) scale(1, -1)">
    <path d="M402 374Q350 374 350.0 324.0Q350 274 402 274Q450 274 450.0 324.0Q450 374 402 374ZM140 248Q119 248 104.5 233.5Q90 219 90.0 198.0Q90 177 104.5 162.5Q119 148 140 148Q188 148 188.0 198.0Q188 248 140 248ZM720 336V-160H159Q128 -41 118 76Q26 115 26 198Q26 245 59.5 277.5Q93 310 140 310Q185 310 218.5 276.5Q252 243 252 198Q252 196 247.0 161.0Q242 126 242 122Q242 33 370 -98Q380 -15 380 74Q380 135 370.5 173.5Q361 212 347.5 227.5Q334 243 320.5 253.5Q307 264 297.5 281.0Q288 298 288 328Q288 376 321.0 408.0Q354 440 402 440Q448 440 481.0 406.5Q514 373 514 328Q514 324 507.0 286.0Q500 248 500 242Q500 129 610 -100Q652 89 652 188Q652 240 641.5 282.0Q631 324 620.5 348.0Q610 372 610 382Q610 429 642.0 461.0Q674 493 720 494V436Q700 435 686.0 420.5Q672 406 672.0 386.0Q672 366 686.0 351.5Q700 337 720 336Z" fill="currentColor"/>
  </g>
</svg>