<?xml version="1.0" encoding="UTF-8"?>
<svg xmlns="http://www.w3.org/2000/svg" viewBox="0 0 720 720">
  <g transform="translate(0, 560) scale(1, -1)">
    <path d="M388.0 -68.0Q400 -56 400.0 -40.0Q400 -24 388.0 -12.0Q376 0 360.0 0.0Q344 0 332.0 -12.0Q320 -24 320.0 -40.0Q320 -56 332.0 -68.0Q344 -80 360.0 -80.0Q376 -80 388.0 -68.0ZM480 -40Q480 -90 445.0 -125.0Q410 -160 360.0 -160.0Q310 -160 275.0 -125.0Q240 -90 240 -40Q240 -2 262.5 29.0Q285 60 320 73V120H120V200H320V263L132 452L188 508L360 337L532 508L588 452L400 263V200H600V120H400V73Q435 60 457.5 29.0Q480 -2 480 -40Z" fill="currentColor"/>
  </g>
</svg>