<?xml version="1.0" encoding="UTF-8"?>
<svg xmlns="http://www.w3.org/2000/svg" viewBox="0 0 720 720">
  <g transform="translate(0, 560) scale(1, -1)">
    <path d="M599 -160H514Q529 -121 529 -104Q529 -25 481.0 18.5Q433 62 351 62Q330 62 295.5 49.5Q261 37 219.0 13.0Q177 -11 137.0 -57.0Q97 -103 75 -160H0V516H35L61 442H133V370L53 320V274Q123 229 143.0 187.5Q163 146 163 56Q257 132 357 132Q461 132 534.0 63.5Q607 -5 607 -106Q607 -130 599 -160ZM469 -160H127Q146 -112 177.5 -76.0Q209 -40 242.0 -22.5Q275 -5 301.5 3.5Q328 12 347 12Q407 12 446.0 -19.0Q485 -50 485 -104Q485 -122 469 -160Z" fill="currentColor"/>
  </g>
</svg>