<?xml version="1.0" encoding="UTF-8"?>
<svg xmlns="http://www.w3.org/2000/svg" viewBox="0 0 720 720">
  <g transform="translate(0, 560) scale(1, -1)">
    <path d="M495 380V470H405V380ZM315 380V470H225V380ZM365 290H355L315 -31L225 -19L265 296Q264 296 261.5 296.5Q259 297 258 297L131 2L49 38L168 316Q130 328 99.0 344.0Q68 360 56 370L45 380Q49 387 56.0 399.5Q63 412 91.0 443.0Q119 474 152.0 497.5Q185 521 241.0 540.5Q297 560 360.0 560.0Q423 560 478.5 541.5Q534 523 568.5 496.5Q603 470 628.5 443.5Q654 417 664 398L675 380Q638 343 552 316L671 38L589 2L462 297Q461 297 458.5 296.5Q456 296 455 296L495 -19L405 -31Z" fill="currentColor"/>
  </g>
</svg>