<?xml version="1.0" encoding="UTF-8"?>
<svg xmlns="http://www.w3.org/2000/svg" viewBox="0 0 720 720">
  <g transform="translate(0, 560) scale(1, -1)">
    <path d="M554 330Q588 301 607.0 257.0Q626 213 628 184L630 155V110H540V20H630V-70H450V110H270V20H360V-70H180V110H90V155Q90 160 90.5 168.5Q91 177 96.0 202.0Q101 227 109.5 249.0Q118 271 137.0 297.5Q156 324 181 342Q175 385 162.0 419.5Q149 454 135.0 454.0Q121 454 109.5 443.0Q98 432 93 422L88 411L2 439Q15 477 49.0 510.5Q83 544 135 544Q166 544 191.0 527.5Q216 511 230.5 483.5Q245 456 253.5 430.0Q262 404 267 376Q297 380 315 380H405Q442 380 469 373L643 547L707 483ZM193.0 213.0Q206 200 225.0 200.0Q244 200 257.0 213.0Q270 226 270.0 245.0Q270 264 257.0 277.0Q244 290 225.0 290.0Q206 290 193.0 277.0Q180 264 180.0 245.0Q180 226 193.0 213.0ZM463.0 213.0Q476 200 495.0 200.0Q514 200 527.0 213.0Q540 226 540.0 245.0Q540 264 527.0 277.0Q514 290 495.0 290.0Q476 290 463.0 277.0Q450 264 450.0 245.0Q450 226 463.0 213.0Z" fill="currentColor"/>
  </g>
</svg>