<?xml version="1.0" encoding="UTF-8"?>
<svg xmlns="http://www.w3.org/2000/svg" viewBox="0 0 720 720">
  <g transform="translate(0, 560) scale(1, -1)">
    <path d="M395 -84Q432 -84 481.5 -44.5Q531 -5 531 26Q531 39 515.5 45.5Q500 52 483 52Q443 52 406.0 20.5Q369 -11 369 -48Q369 -60 375.5 -72.0Q382 -84 395 -84ZM720 352V-160H216Q225 -141 246.5 -95.0Q268 -49 278.5 -26.5Q289 -4 306.5 35.5Q324 75 333.0 99.0Q342 123 352.0 153.0Q362 183 366.5 205.5Q371 228 371 246Q371 301 361 354Q519 354 585 288Q643 382 673 382Q705 364 720 352Z" fill="currentColor"/>
  </g>
</svg>