<?xml version="1.0" encoding="UTF-8"?>
<svg xmlns="http://www.w3.org/2000/svg" viewBox="0 0 720 720">
  <g transform="translate(0, 560) scale(1, -1)">
    <path d="M720 360V196Q594 196 492.0 178.0Q390 160 390 132Q390 100 436 100Q443 100 556.0 108.0Q669 116 720 116V-78Q536 -78 411.0 -53.0Q286 -28 286 12Q286 66 313.0 130.0Q340 194 340 206Q340 233 302.5 280.5Q265 328 227.5 371.5Q190 415 190 434Q190 443 159 560H720V440Q603 440 481.5 423.5Q360 407 360 374Q360 346 412 346Q456 346 559.0 353.0Q662 360 720 360Z" fill="currentColor"/>
  </g>
</svg>