<?xml version="1.0" encoding="UTF-8"?>
<svg xmlns="http://www.w3.org/2000/svg" viewBox="0 0 720 720">
  <g transform="translate(0, 560) scale(1, -1)">
    <path d="M375 288Q375 275 385.0 272.5Q395 270 431 269Q448 269 525 260L577 330L613 335L590 252L614 242L590 234L613 152L577 157L525 226L500 223Q484 222 462.0 220.0Q440 218 424 218L401 217Q375 216 375 199V188Q375 170 392 130L452 -9H426Q417 -9 412.0 -5.5Q407 -2 398 11L370 50H328Q319 50 319 61Q319 73 328 73H351L317 122H275Q266 122 266 133Q266 145 275 145H297L245 215H239L190 218Q106 221 106 242Q106 257 137.0 262.0Q168 267 245 271L297 341H275Q266 341 266.0 353.0Q266 365 275 365H317L351 414H328Q319 414 319 425Q319 437 328 437H370L398 475Q407 487 412.0 490.5Q417 494 426 494H452L392 356Q375 293 375 288Z" fill="currentColor"/>
  </g>
</svg>