<?xml version="1.0" encoding="UTF-8"?>
<svg xmlns="http://www.w3.org/2000/svg" viewBox="0 0 720 720">
  <g transform="translate(0, 560) scale(1, -1)">
    <path d="M248 560H591Q617 495 617 414Q617 366 495 366Q444 366 400.5 385.0Q357 404 327.5 435.5Q298 467 279.5 497.0Q261 527 248 560ZM121 560H202Q217 521 239.0 482.5Q261 444 293.5 403.0Q326 362 371.0 337.0Q416 312 465 312Q543 312 717 342Q718 342 718 342L720 341V160Q589 160 506.0 146.0Q423 132 423 110Q423 80 477 80Q484 80 595.0 90.0Q706 100 719 100H720V-76H719Q319 -76 313 60Q312 123 302.5 177.5Q293 232 284.0 263.5Q275 295 253.5 333.0Q232 371 224.0 382.5Q216 394 191 426Q138 497 121 560ZM644 560H720V388H719Q665 388 665 424Q665 497 644 560Z" fill="currentColor"/>
  </g>
</svg>