<?xml version="1.0" encoding="UTF-8"?>
<svg xmlns="http://www.w3.org/2000/svg" viewBox="0 0 720 720">
  <g transform="translate(0, 560) scale(1, -1)">
    <path d="M0 470V560H81Q90 534 90 515Q90 499 83.0 489.0Q76 479 60.5 475.5Q45 472 33.5 471.0Q22 470 0 470ZM0 290V380Q108 380 189.0 345.0Q270 310 270.0 245.0Q270 180 189.0 145.0Q108 110 0 110V200Q71 200 119.0 215.0Q167 230 179 245Q167 260 119.0 275.0Q71 290 0 290ZM630 560H720Q720 204 538.0 22.0Q356 -160 0 -160V-70Q318 -70 474.0 86.0Q630 242 630 560Z" fill="currentColor"/>
  </g>
</svg>