<?xml version="1.0" encoding="UTF-8"?>
<svg xmlns="http://www.w3.org/2000/svg" viewBox="0 0 720 720">
  <g transform="translate(0, 560) scale(1, -1)">
    <path d="M359 461Q442 461 491.5 403.0Q541 345 541 248Q541 156 491.0 98.5Q441 41 360.0 41.0Q279 41 229.0 99.0Q179 157 179 251Q179 346 228.5 403.5Q278 461 359 461ZM606 247Q606 370 538.5 444.5Q471 519 359 519Q249 519 181.5 445.0Q114 371 114.0 251.0Q114 131 182.0 57.5Q250 -16 360 -16Q472 -16 539.0 59.0Q606 134 606 247ZM359 428Q292 428 252.0 381.0Q212 334 212.0 251.0Q212 168 252.5 121.0Q293 74 360 74Q426 74 467.0 120.5Q508 167 508 248Q508 333 467.5 380.5Q427 428 359 428ZM639 247Q639 122 562.5 36.5Q486 -49 360 -49Q236 -49 158.5 35.0Q81 119 81.0 251.0Q81 383 158.0 467.5Q235 552 359 552Q485 552 562.0 467.0Q639 382 639 247Z" fill="currentColor"/>
  </g>
</svg>