<?xml version="1.0" encoding="UTF-8"?>
<svg xmlns="http://www.w3.org/2000/svg" viewBox="0 0 720 720">
  <g transform="translate(0, 560) scale(1, -1)">
    <path d="M580 248Q532 248 532.0 198.0Q532 148 580 148Q630 148 630 198Q630 219 615.5 233.5Q601 248 580 248ZM320 374Q301 374 286.5 359.0Q272 344 272 324Q272 274 320 274Q370 274 370.0 324.0Q370 374 320 374ZM0 336H2Q50 336 50 386Q50 406 35.5 421.0Q21 436 2 436H0V494H2Q48 494 79.0 461.0Q110 428 110 382Q110 367 99.5 343.5Q89 320 78.5 281.0Q68 242 68 188Q68 89 110 -100Q218 128 218 242Q218 250 212.0 284.5Q206 319 206 328Q206 376 239.0 408.0Q272 440 320 440Q366 440 399.0 406.5Q432 373 432 328Q432 299 422.5 281.0Q413 263 399.5 251.5Q386 240 372.5 223.5Q359 207 349.5 169.0Q340 131 340 72Q340 -16 350 -98Q478 33 478 122Q478 124 473.5 159.0Q469 194 468 198Q468 244 501.5 277.0Q535 310 580 310Q628 310 661.0 277.5Q694 245 694 198Q694 118 602 76Q591 -43 559 -160H0Z" fill="currentColor"/>
  </g>
</svg>