<?xml version="1.0" encoding="UTF-8"?>
<svg xmlns="http://www.w3.org/2000/svg" viewBox="0 0 720 720">
  <g transform="translate(0, 560) scale(1, -1)">
    <path d="M0 20Q0 106 47.0 153.0Q94 200 180 200H540Q626 200 673.0 153.0Q720 106 720 20Q720 -44 650 -160H70Q0 -44 0 20ZM180 -154V56Q133 56 116 42Q108 37 108 20Q108 -25 170 -136Q171 -139 174.5 -145.0Q178 -151 180 -154ZM550 -135Q612 -24 612 20Q612 37 604 42Q587 56 540 56V-154Q548 -138 550 -135ZM258.0 291.0Q216 328 216.0 380.0Q216 432 258.0 469.0Q300 506 360.0 506.0Q420 506 462.0 469.0Q504 432 504.0 380.0Q504 328 462.0 291.0Q420 254 360.0 254.0Q300 254 258.0 291.0Z" fill="currentColor"/>
  </g>
</svg>