<?xml version="1.0" encoding="UTF-8"?>
<svg xmlns="http://www.w3.org/2000/svg" viewBox="0 0 720 720">
  <g transform="translate(0, 560) scale(1, -1)">
    <path d="M48 380Q95 462 178.5 511.0Q262 560 360 560Q464 560 550.5 505.5Q637 451 682 361L360 200L682 39Q637 -51 550.5 -105.5Q464 -160 360 -160Q262 -160 178.5 -111.0Q95 -62 48 20H0V380ZM373.0 393.0Q386 380 405.0 380.0Q424 380 437.0 393.0Q450 406 450.0 425.0Q450 444 437.0 457.0Q424 470 405.0 470.0Q386 470 373.0 457.0Q360 444 360.0 425.0Q360 406 373.0 393.0Z" fill="currentColor"/>
  </g>
</svg>