<?xml version="1.0" encoding="UTF-8"?>
<svg xmlns="http://www.w3.org/2000/svg" viewBox="0 0 720 720">
  <g transform="translate(0, 560) scale(1, -1)">
    <path d="M80 -160H-17L52 -92Q56 -88 64.5 -78.0Q73 -68 91.0 -39.5Q109 -11 123.0 20.5Q137 52 148.5 101.0Q160 150 160 200Q160 251 148.5 300.0Q137 349 122.5 380.5Q108 412 90.0 440.5Q72 469 64.0 478.5Q56 488 52 492L-17 560H80Q165 560 246.0 541.5Q327 523 386.5 496.0Q446 469 502.0 430.5Q558 392 592.0 361.0Q626 330 657.5 294.0Q689 258 698.0 245.0Q707 232 714 221L727 200L714 179Q707 168 698.0 155.0Q689 142 657.5 106.0Q626 70 592.0 39.0Q558 8 502.0 -30.5Q446 -69 386.5 -96.0Q327 -123 246.0 -141.5Q165 -160 80 -160ZM163 475Q240 347 240.0 200.0Q240 53 163 -75Q255 -63 338.5 -28.0Q422 7 480.5 53.5Q539 100 573.0 134.0Q607 168 631 200Q607 232 573.0 266.0Q539 300 480.5 346.5Q422 393 338.5 428.0Q255 463 163 475Z" fill="currentColor"/>
  </g>
</svg>