<?xml version="1.0" encoding="UTF-8"?>
<svg xmlns="http://www.w3.org/2000/svg" viewBox="0 0 720 720">
  <g transform="translate(0, 560) scale(1, -1)">
    <path d="M449 370Q506 358 549 330Q574 380 630 380Q668 380 694.0 354.0Q720 328 720.0 290.0Q720 252 694.0 226.0Q668 200 630 200Q630 144 584 98Q630 71 630 16Q630 -23 603.5 -51.0Q577 -79 540.0 -79.0Q503 -79 476.5 -51.0Q450 -23 450 16Q450 25 451 30Q410 20 360.0 20.0Q310 20 269 30Q269 28 269.5 25.0Q270 22 270 20Q270 -18 244.0 -44.0Q218 -70 180.0 -70.0Q142 -70 116.0 -44.0Q90 -18 90 20Q90 72 136 98Q90 144 90 200Q52 200 26.0 226.0Q0 252 0.0 290.0Q0 328 26.0 354.0Q52 380 90 380Q146 380 171 330Q214 358 271 370Q271 372 270.5 375.0Q270 378 270 380Q270 418 296.0 444.0Q322 470 360.0 470.0Q398 470 424.0 444.0Q450 418 450 380Q450 378 449.5 375.0Q449 372 449 370ZM233.0 261.5Q180 233 180.0 200.0Q180 167 233.0 138.5Q286 110 360.0 110.0Q434 110 487.0 138.5Q540 167 540.0 200.0Q540 233 487.0 261.5Q434 290 360.0 290.0Q286 290 233.0 261.5Z" fill="currentColor"/>
  </g>
</svg>