<?xml version="1.0" encoding="UTF-8"?>
<svg xmlns="http://www.w3.org/2000/svg" viewBox="0 0 720 720">
  <g transform="translate(0, 560) scale(1, -1)">
    <path d="M484.5 4.5Q470 19 470.0 40.0Q470 61 484.5 75.5Q499 90 520.0 90.0Q541 90 555.5 75.5Q570 61 570.0 40.0Q570 19 555.5 4.5Q541 -10 520.0 -10.0Q499 -10 484.5 4.5ZM484.5 164.5Q470 179 470.0 200.0Q470 221 484.5 235.5Q499 250 520.0 250.0Q541 250 555.5 235.5Q570 221 570.0 200.0Q570 179 555.5 164.5Q541 150 520.0 150.0Q499 150 484.5 164.5ZM484.5 324.5Q470 339 470.0 360.0Q470 381 484.5 395.5Q499 410 520.0 410.0Q541 410 555.5 395.5Q570 381 570.0 360.0Q570 339 555.5 324.5Q541 310 520.0 310.0Q499 310 484.5 324.5ZM0 320V400Q171 399 243.5 389.5Q316 380 348 348Q384 312 392.0 234.0Q400 156 400 -40V-160H320V-40Q320 40 319.5 80.0Q319 120 316.5 173.5Q314 227 308.0 254.5Q302 282 292 292Q264 320 0 320ZM0 480V560H720V-160H640V480Z" fill="currentColor"/>
  </g>
</svg>