<?xml version="1.0" encoding="UTF-8"?>
<svg xmlns="http://www.w3.org/2000/svg" viewBox="0 0 720 720">
  <g transform="translate(0, 560) scale(1, -1)">
    <path d="M262 -136Q230 -120 200 -120Q113 -120 77 -108Q0 -83 0 0Q0 57 43 100Q65 122 119 154Q163 181 181.5 198.0Q200 215 200 240Q200 376 216 436Q250 560 360.0 560.0Q470 560 504 436Q520 376 520 240Q520 215 538.5 198.0Q557 181 601 154Q655 122 677 100Q720 57 720 0Q720 -83 643 -108Q607 -120 520 -120Q490 -120 458 -136Q410 -160 360.0 -160.0Q310 -160 262 -136ZM280 240Q280 183 237 140Q215 118 161 86Q117 59 98.5 42.0Q80 25 80 0Q80 -24 103 -32Q127 -40 200 -40Q250 -40 298 -64Q330 -80 360.0 -80.0Q390 -80 422 -64Q470 -40 520 -40Q593 -40 617 -32Q640 -24 640 0Q640 25 621.5 42.0Q603 59 559 86Q505 118 483 140Q440 183 440 240Q440 359 425.0 419.5Q410 480 360.0 480.0Q310 480 295.0 419.5Q280 359 280 240Z" fill="currentColor"/>
  </g>
</svg>