<?xml version="1.0" encoding="UTF-8"?>
<svg xmlns="http://www.w3.org/2000/svg" viewBox="0 0 720 720">
  <g transform="translate(0, 560) scale(1, -1)">
    <path d="M257.0 187.0Q244 200 225.0 200.0Q206 200 193.0 187.0Q180 174 180.0 155.0Q180 136 193.0 123.0Q206 110 225.0 110.0Q244 110 257.0 123.0Q270 136 270.0 155.0Q270 174 257.0 187.0ZM320.0 60.0Q280 20 225.0 20.0Q170 20 130.0 60.0Q90 100 90.0 155.0Q90 210 130.0 250.0Q170 290 225.0 290.0Q280 290 320.0 250.0Q360 210 360.0 155.0Q360 100 320.0 60.0ZM81 -160H0V-70Q23 -70 45.5 -97.0Q68 -124 81 -160ZM630 -160Q630 158 474.0 314.0Q318 470 0 470V560Q356 560 538.0 378.0Q720 196 720 -160Z" fill="currentColor"/>
  </g>
</svg>