<?xml version="1.0" encoding="UTF-8"?>
<svg xmlns="http://www.w3.org/2000/svg" viewBox="0 0 720 720">
  <g transform="translate(0, 560) scale(1, -1)">
    <path d="M521 425 450 496V560H514L585 489L656 560H720V496L649 425L720 354V290H656L585 361L514 290H450V354ZM71 425 0 496V560H64L135 489L206 560H270V496L199 425L270 354V290H206L135 361L64 290H0V354ZM199 -25 270 -96V-160H206L135 -89L64 -160H0V-96L71 -25L0 46V110H64L135 39L206 110H270V46ZM649 -25 720 -96V-160H656L585 -89L514 -160H450V-96L521 -25L450 46V110H514L585 39L656 110H720V46Z" fill="currentColor"/>
  </g>
</svg>