<?xml version="1.0" encoding="UTF-8"?>
<svg xmlns="http://www.w3.org/2000/svg" viewBox="0 0 720 720">
  <g transform="translate(0, 560) scale(1, -1)">
    <path d="M90 20Q54 20 27.0 45.5Q0 71 0 109Q0 157 40 185L270 338V414Q251 398 225.0 398.0Q199 398 180 414Q147 439 102 493Q74 528 56 560H234Q247 546 270 526V542Q270 548 272 560H471L670 460Q693 449 706.5 427.0Q720 405 720 380V110Q720 72 694.0 46.0Q668 20 630.0 20.0Q592 20 566.0 46.0Q540 72 540 110V324L450 369V290Q450 242 410 215L140 35Q118 20 90 20Z" fill="currentColor"/>
  </g>
</svg>