<?xml version="1.0" encoding="UTF-8"?>
<svg xmlns="http://www.w3.org/2000/svg" viewBox="0 0 720 720">
  <g transform="translate(0, 560) scale(1, -1)">
    <path d="M657 200Q684 200 702.0 181.0Q720 162 720 137Q720 133 718 121L717 116Q716 112 714.0 105.5Q712 99 709.0 90.0Q706 81 702.5 69.5Q699 58 695.0 46.5Q691 35 685.5 21.5Q680 8 675 -5Q610 -160 522 -160Q485 -160 450 -137V-149L471 -160H270V56Q226 56 194.0 34.5Q162 13 162 -25Q162 -84 234 -160H56Q18 -90 18 -25Q18 81 102 146Q173 200 270 200H387Q413 200 431.5 181.5Q450 163 450 137Q450 83 479 23Q498 -15 517 -30Q541 -4 566 62L596 153Q602 174 619.0 187.0Q636 200 657 200ZM258.0 291.0Q216 328 216.0 380.0Q216 432 258.0 469.0Q300 506 360.0 506.0Q420 506 462.0 469.0Q504 432 504.0 380.0Q504 328 462.0 291.0Q420 254 360.0 254.0Q300 254 258.0 291.0Z" fill="currentColor"/>
  </g>
</svg>