<?xml version="1.0" encoding="UTF-8"?>
<svg xmlns="http://www.w3.org/2000/svg" viewBox="0 0 720 720">
  <g transform="translate(0, 560) scale(1, -1)">
    <path d="M540 110H720V-160H630V20H540V-160H180V20H0V290H90V110H180V200H540ZM225 290Q170 290 130.0 330.0Q90 370 90.0 425.0Q90 480 130.0 520.0Q170 560 225 560H495Q550 560 590.0 520.0Q630 480 630.0 425.0Q630 370 590.0 330.0Q550 290 495 290ZM225 470Q206 470 193.0 457.0Q180 444 180.0 425.0Q180 406 193.0 393.0Q206 380 225 380H495Q514 380 527.0 393.0Q540 406 540.0 425.0Q540 444 527.0 457.0Q514 470 495 470ZM283.0 393.0Q270 406 270.0 425.0Q270 444 283.0 457.0Q296 470 315.0 470.0Q334 470 347.0 457.0Q360 444 360.0 425.0Q360 406 347.0 393.0Q334 380 315.0 380.0Q296 380 283.0 393.0Z" fill="currentColor"/>
  </g>
</svg>