<?xml version="1.0" encoding="UTF-8"?>
<svg xmlns="http://www.w3.org/2000/svg" viewBox="0 0 720 720">
  <g transform="translate(0, 560) scale(1, -1)">
    <path d="M720 0V-80Q621 -80 550.5 -15.5Q480 49 480 140Q480 278 626 379Q548 400 480 400Q425 400 378.5 388.0Q332 376 291.0 350.5Q250 325 226.5 306.5Q203 288 165 253Q129 220 110.0 205.0Q91 190 60.5 175.0Q30 160 0 160V240Q15 240 35.0 251.5Q55 263 69.0 275.0Q83 287 112 313Q145 343 163.5 359.0Q182 375 221.0 401.5Q260 428 294.0 442.5Q328 457 377.5 468.5Q427 480 480 480Q603 480 720 430V343Q647 306 603.5 253.5Q560 201 560 140Q560 82 607.0 41.0Q654 0 720 0Z" fill="currentColor"/>
  </g>
</svg>