<?xml version="1.0" encoding="UTF-8"?>
<svg xmlns="http://www.w3.org/2000/svg" viewBox="0 0 720 720">
  <g transform="translate(0, 560) scale(1, -1)">
    <path d="M140 249Q140 215 146.0 181.5Q152 148 168.0 111.5Q184 75 209.0 47.5Q234 20 275.5 2.0Q317 -16 370 -16Q558 -16 580 186H513Q502 112 468.0 76.5Q434 41 371 41Q295 41 250.0 97.5Q205 154 205 250Q205 348 248.0 404.5Q291 461 365 461Q480 461 503 352H570Q540 519 373 519Q320 519 278.0 501.0Q236 483 210.5 455.0Q185 427 168.5 389.5Q152 352 146.0 318.0Q140 284 140 249ZM107 249Q107 286 114.0 324.0Q121 362 139.5 404.0Q158 446 186.5 478.0Q215 510 263.5 531.0Q312 552 373 552Q467 552 526.0 502.0Q585 452 602 358L609 319H476L471 345Q462 390 439.0 409.0Q416 428 365 428Q306 428 272.0 383.5Q238 339 238 250Q238 164 274.0 119.0Q310 74 371 74Q421 74 445.5 99.5Q470 125 480 191L485 219H617L613 182Q600 71 537.5 11.0Q475 -49 370 -49Q309 -49 261.5 -28.5Q214 -8 185.5 23.5Q157 55 138.5 96.5Q120 138 113.5 175.5Q107 213 107 249Z" fill="currentColor"/>
  </g>
</svg>