<?xml version="1.0" encoding="UTF-8"?>
<svg xmlns="http://www.w3.org/2000/svg" viewBox="0 0 720 720">
  <g transform="translate(0, 560) scale(1, -1)">
    <path d="M241 274V453H377Q423 453 449.5 429.0Q476 405 476.0 363.0Q476 321 450.0 297.5Q424 274 377 274ZM544 360Q544 432 503.5 471.0Q463 510 387 510H176V0H241V216H401Q465 216 504.5 255.5Q544 295 544 360ZM274 307H377Q413 307 428.0 320.5Q443 334 443.0 363.0Q443 392 428.0 406.0Q413 420 377 420H274ZM577 360Q577 282 527.0 232.5Q477 183 401 183H274V-33H143V543H387Q474 543 525.5 494.0Q577 445 577 360Z" fill="currentColor"/>
  </g>
</svg>