<?xml version="1.0" encoding="UTF-8"?>
<svg xmlns="http://www.w3.org/2000/svg" viewBox="0 0 720 720">
  <g transform="translate(0, 560) scale(1, -1)">
    <path d="M314 258Q327 258 330.0 268.5Q333 279 334 314Q334 340 342 408L272 460L268 496L350 472L360 496L368 472L450 496L446 460L376 408L380 382Q381 368 382.0 353.5Q383 339 383.5 329.0Q384 319 384 306L386 284Q387 258 404 258H414Q434 258 472 274L612 334V308Q612 299 608.5 294.0Q605 289 592 280L552 252V210Q552 202 542 202Q530 202 530 210V234L480 200V158Q480 148 470 148Q458 148 458 158V180L388 128V122L384 72Q381 -12 360 -12Q345 -12 340.5 18.5Q336 49 332 128L262 180V158Q262 148 250 148Q246 148 242.0 151.5Q238 155 238 158V200L188 234V210Q188 202 178 202Q166 202 166 210V252L128 280Q119 287 115.5 290.0Q112 293 110.0 297.5Q108 302 108 308V334L246 274Q306 258 314 258Z" fill="currentColor"/>
  </g>
</svg>