<?xml version="1.0" encoding="UTF-8"?>
<svg xmlns="http://www.w3.org/2000/svg" viewBox="0 0 720 720">
  <g transform="translate(0, 560) scale(1, -1)">
    <path d="M560 248 720 88V-40H648L528 -160H192L72 -40H0V88L160 248V500Q160 525 177.5 542.5Q195 560 220 560H500Q525 560 542.5 542.5Q560 525 560 500ZM506 40H454L480 14ZM400 -66 425 -41 397 -14 373 -39ZM439 -55 414 -80 440 -106 466 -80ZM320 -14 295 -41 320 -66 345 -39ZM281 -26 306 0 280 26 254 0ZM334 0 359 -25 383 0 360 26ZM306 -80 281 -55 257 -80 280 -106ZM359 -54 334 -80 360 -106 386 -80ZM412 0 439 -27 466 0 440 26ZM398 14 425 40H374ZM320 14 346 40H294ZM240 14 266 40H214ZM197 29 171 3 201 -25 226 0ZM240 -14 215 -39 243 -66 267 -41ZM266 -120 242 -94 215 -120ZM320 -94 294 -120H346ZM400 -94 374 -120H426ZM480 -94 454 -120H506ZM480 -66 506 -40 480 -14 454 -41ZM494 0 520 -26 549 3 523 29ZM200 500V100Q200 92 206.0 86.0Q212 80 220 80H500Q508 80 514.0 86.0Q520 92 520 100V500Q520 508 514.0 514.0Q508 520 500 520H220Q212 520 206.0 514.0Q200 508 200 500ZM40 0H112L174 62Q160 78 160 100V192L40 72ZM157 -11 128 -40 157 -69 186 -39ZM171 -83 197 -109 228 -80 201 -53ZM523 -109 549 -83 520 -54 494 -80ZM563 -69 592 -40 563 -11 534 -40ZM680 0V72L560 192V100Q560 78 546 62L608 0Z" fill="currentColor"/>
  </g>
</svg>