<?xml version="1.0" encoding="UTF-8"?>
<svg xmlns="http://www.w3.org/2000/svg" viewBox="0 0 720 720">
  <g transform="translate(0, 560) scale(1, -1)">
    <path d="M720 -70V-160H540V-115Q540 12 414 201Q397 200 360.0 200.0Q323 200 306 201Q180 12 180 -115V-160H0V-70H93Q109 54 204 209Q0 235 0.0 335.0Q0 435 202 461L152 560H253L298 469Q317 470 360.0 470.0Q403 470 422 469L467 560H568L518 461Q720 435 720.0 335.0Q720 235 516 209Q611 54 627 -70ZM553.0 303.0Q566 290 585.0 290.0Q604 290 617.0 303.0Q630 316 630.0 335.0Q630 354 617.0 367.0Q604 380 585.0 380.0Q566 380 553.0 367.0Q540 354 540.0 335.0Q540 316 553.0 303.0ZM103.0 303.0Q116 290 135.0 290.0Q154 290 167.0 303.0Q180 316 180.0 335.0Q180 354 167.0 367.0Q154 380 135.0 380.0Q116 380 103.0 367.0Q90 354 90.0 335.0Q90 316 103.0 303.0Z" fill="currentColor"/>
  </g>
</svg>