<?xml version="1.0" encoding="UTF-8"?>
<svg xmlns="http://www.w3.org/2000/svg" viewBox="0 0 720 720">
  <g transform="translate(0, 560) scale(1, -1)">
    <path d="M636 336Q680 283 680 200Q680 74 558 -48Q509 -97 458 -127Q402 -160 360.0 -160.0Q318 -160 262 -127Q207 -95 156.5 -43.0Q106 9 77 64Q40 132 40 200Q40 283 84 336Q137 400 240 400Q286 400 322 387Q336 500 458 593L502 527Q493 521 477.5 508.0Q462 495 436.0 459.5Q410 424 403 388Q439 400 480 400Q583 400 636 336ZM502 8Q600 106 600 200Q600 320 480 320Q454 320 431.5 313.0Q409 306 400.5 301.0Q392 296 388 292L359 261L332 292Q295 320 240 320Q176 320 146 284Q120 252 120 200Q120 106 218 8Q259 -33 300.0 -56.5Q341 -80 360.0 -80.0Q379 -80 420.0 -56.5Q461 -33 502 8ZM332.0 -48.0Q320 -36 320.0 -20.0Q320 -4 332.0 8.0Q344 20 360.0 20.0Q376 20 388.0 8.0Q400 -4 400.0 -20.0Q400 -36 388.0 -48.0Q376 -60 360.0 -60.0Q344 -60 332.0 -48.0ZM412.0 12.0Q400 24 400.0 40.0Q400 56 412.0 68.0Q424 80 440.0 80.0Q456 80 468.0 68.0Q480 56 480.0 40.0Q480 24 468.0 12.0Q456 0 440.0 0.0Q424 0 412.0 12.0ZM252.0 12.0Q240 24 240.0 40.0Q240 56 252.0 68.0Q264 80 280.0 80.0Q296 80 308.0 68.0Q320 56 320.0 40.0Q320 24 308.0 12.0Q296 0 280.0 0.0Q264 0 252.0 12.0ZM332.0 72.0Q320 84 320.0 100.0Q320 116 332.0 128.0Q344 140 360.0 140.0Q376 140 388.0 128.0Q400 116 400.0 100.0Q400 84 388.0 72.0Q376 60 360.0 60.0Q344 60 332.0 72.0ZM492.0 72.0Q480 84 480.0 100.0Q480 116 492.0 128.0Q504 140 520.0 140.0Q536 140 548.0 128.0Q560 116 560.0 100.0Q560 84 548.0 72.0Q536 60 520.0 60.0Q504 60 492.0 72.0ZM172.0 72.0Q160 84 160.0 100.0Q160 116 172.0 128.0Q184 140 200.0 140.0Q216 140 228.0 128.0Q240 116 240.0 100.0Q240 84 228.0 72.0Q216 60 200.0 60.0Q184 60 172.0 72.0ZM412.0 132.0Q400 144 400.0 160.0Q400 176 412.0 188.0Q424 200 440.0 200.0Q456 200 468.0 188.0Q480 176 480.0 160.0Q480 144 468.0 132.0Q456 120 440.0 120.0Q424 120 412.0 132.0ZM252.0 132.0Q240 144 240.0 160.0Q240 176 252.0 188.0Q264 200 280.0 200.0Q296 200 308.0 188.0Q320 176 320.0 160.0Q320 144 308.0 132.0Q296 120 280.0 120.0Q264 120 252.0 132.0ZM152.0 172.0Q140 184 140.0 200.0Q140 216 152.0 228.0Q164 240 180.0 240.0Q196 240 208.0 228.0Q220 216 220.0 200.0Q220 184 208.0 172.0Q196 160 180.0 160.0Q164 160 152.0 172.0ZM512.0 172.0Q500 184 500.0 200.0Q500 216 512.0 228.0Q524 240 540.0 240.0Q556 240 568.0 228.0Q580 216 580.0 200.0Q580 184 568.0 172.0Q556 160 540.0 160.0Q524 160 512.0 172.0ZM232.0 232.0Q220 244 220.0 260.0Q220 276 232.0 288.0Q244 300 260.0 300.0Q276 300 288.0 288.0Q300 276 300.0 260.0Q300 244 288.0 232.0Q276 220 260.0 220.0Q244 220 232.0 232.0ZM432.0 232.0Q420 244 420.0 260.0Q420 276 432.0 288.0Q444 300 460.0 300.0Q476 300 488.0 288.0Q500 276 500.0 260.0Q500 244 488.0 232.0Q476 220 460.0 220.0Q444 220 432.0 232.0ZM332.0 192.0Q320 204 320.0 220.0Q320 236 332.0 248.0Q344 260 360.0 260.0Q376 260 388.0 248.0Q400 236 400.0 220.0Q400 204 388.0 192.0Q376 180 360.0 180.0Q344 180 332.0 192.0Z" fill="currentColor"/>
  </g>
</svg>