<?xml version="1.0" encoding="UTF-8"?>
<svg xmlns="http://www.w3.org/2000/svg" viewBox="0 0 720 720">
  <g transform="translate(0, 560) scale(1, -1)">
    <path d="M560 240 640 280V120L560 160Q557 155 552.0 146.0Q547 137 528.5 113.0Q510 89 489.5 69.5Q469 50 435.0 30.5Q401 11 364 4L385 -83Q413 -89 436.5 -108.5Q460 -128 470 -144L480 -160H240Q244 -153 251.0 -142.0Q258 -131 283.0 -110.0Q308 -89 336 -83L315 0Q271 1 230.5 22.0Q190 43 164.0 72.5Q138 102 118.0 131.0Q98 160 89 180L80 200Q82 205 86.5 214.5Q91 224 105.5 249.5Q120 275 137.0 297.0Q154 319 182.0 343.5Q210 368 240 382V560H280Q382 560 431.0 513.0Q480 466 480 400Q480 376 471 345Q497 325 519.5 298.5Q542 272 551 256ZM172.0 252.0Q184 240 200.0 240.0Q216 240 228.0 252.0Q240 264 240.0 280.0Q240 296 228.0 308.0Q216 320 200.0 320.0Q184 320 172.0 308.0Q160 296 160.0 280.0Q160 264 172.0 252.0ZM332 268Q354 290 377.0 328.0Q400 366 400 400Q400 464 320 477V257Z" fill="currentColor"/>
  </g>
</svg>