<?xml version="1.0" encoding="UTF-8"?>
<svg xmlns="http://www.w3.org/2000/svg" viewBox="0 0 720 720">
  <g transform="translate(0, 560) scale(1, -1)">
    <path d="M180 110V200H540V110H630V290H720V20H540V-160H180V20H90V-160H0V110ZM495 290H225Q170 290 130.0 330.0Q90 370 90.0 425.0Q90 480 130.0 520.0Q170 560 225 560H495Q550 560 590.0 520.0Q630 480 630.0 425.0Q630 370 590.0 330.0Q550 290 495 290ZM495 470H225Q206 470 193.0 457.0Q180 444 180.0 425.0Q180 406 193.0 393.0Q206 380 225 380H495Q514 380 527.0 393.0Q540 406 540.0 425.0Q540 444 527.0 457.0Q514 470 495 470ZM437.0 457.0Q450 444 450.0 425.0Q450 406 437.0 393.0Q424 380 405.0 380.0Q386 380 373.0 393.0Q360 406 360.0 425.0Q360 444 373.0 457.0Q386 470 405.0 470.0Q424 470 437.0 457.0Z" fill="currentColor"/>
  </g>
</svg>